<svg width="668" height="300" viewBox="0 0 668 300" fill="none" xmlns="http://www.w3.org/2000/svg">
<path d="M456.778 90.8404C427.578 101.834 399.625 87.5724 366.656 66.6675C363.514 64.9086 360.126 62.7418 356.476 60.1297C349.413 55.5545 342.108 50.7746 334.503 45.956C250.744 -2.9375 109.181 -33.5451 37.1397 64.258C-30.3549 155.889 12.1137 247.557 25.6981 271.987C28.0316 276.055 29.4408 278.289 29.4408 278.289L653.884 278.455C684.997 51.4602 537.484 60.45 456.778 90.8404Z" fill="#EDF4FF"/>
<path d="M570.865 277.322C569.809 275.663 566.631 271.358 562.398 271.928C557.787 272.549 567.492 275.589 570.463 277.334C569.803 277.344 569.235 277.291 568.819 277.142C566.833 276.434 563.431 277.792 562.344 278.269H581.253C581.122 277.816 580.782 277.078 579.901 276.539C579.591 276.349 578.967 276.323 578.161 276.384C579.285 275.059 580.066 270.824 576.936 271.914C574.65 272.71 574.656 275.297 574.88 276.828C574.393 276.904 573.9 276.981 573.413 277.051C572.471 272.253 569.141 258.19 562.392 257.816C555.55 257.436 568.194 272.4 572.405 277.185C571.865 277.25 571.345 277.299 570.865 277.322Z" fill="#82B378"/>
<path d="M355.301 106.915H189.046V247.691H375.323L355.301 106.915Z" fill="#DB6161"/>
<path d="M348.023 111.735H159.599V247.692H367.564L348.023 111.735Z" fill="#233862"/>
<path d="M266.755 247.691H292.378V221.712H266.755V247.691Z" fill="#E69D43"/>
<path d="M291.312 247.691H303.043V221.712H291.312V247.691Z" fill="#D57912"/>
<path d="M265.395 222.068H307.886V196.445H265.395V222.068Z" fill="#E69D43"/>
<path d="M306.819 222.068H318.55V196.445H306.819V222.068Z" fill="#D57912"/>
<path d="M86.5749 257.518H31.8593C30.5294 257.518 29.4414 256.43 29.4414 255.101V233.522C29.4414 232.192 30.5294 231.104 31.8593 231.104H86.5749C87.9045 231.104 88.9925 232.192 88.9925 233.522V255.101C88.9925 256.43 87.9045 257.518 86.5749 257.518Z" fill="#B65615"/>
<path d="M253.735 290.068C266.907 289.52 277.141 278.397 276.592 265.225C276.044 252.053 264.921 241.82 251.749 242.368C238.577 242.917 228.343 254.039 228.891 267.211C229.44 280.383 240.563 290.617 253.735 290.068Z" fill="#233862"/>
<path d="M346.405 289.999C359.524 288.7 369.107 277.012 367.808 263.893C366.51 250.773 354.822 241.191 341.702 242.489C328.583 243.788 319 255.476 320.299 268.595C321.597 281.715 333.285 291.297 346.405 289.999Z" fill="#233862"/>
<path d="M78.3215 283.12C87.644 273.797 87.6441 258.683 78.3217 249.36C68.9994 240.038 53.8848 240.038 44.5624 249.36C35.2399 258.683 35.2399 273.797 44.5622 283.12C53.8845 292.442 68.9991 292.442 78.3215 283.12Z" fill="#233862"/>
<path d="M61.4449 278.291C68.0991 278.291 73.4934 272.897 73.4934 266.243C73.4934 259.589 68.0991 254.194 61.4449 254.194C54.7908 254.194 49.3965 259.589 49.3965 266.243C49.3965 272.897 54.7908 278.291 61.4449 278.291Z" fill="#D36E2A"/>
<path d="M61.4449 278.291C68.0991 278.291 73.4934 272.897 73.4934 266.243C73.4934 259.589 68.0991 254.194 61.4449 254.194C54.7908 254.194 49.3965 259.589 49.3965 266.243C49.3965 272.897 54.7908 278.291 61.4449 278.291Z" fill="#F59040"/>
<path d="M69.4651 257.253C70.142 258.759 70.5215 260.427 70.5215 262.186C70.5215 268.839 65.1272 274.234 58.473 274.234C55.3925 274.234 52.5835 273.076 50.4531 271.174C52.3382 275.368 56.5489 278.29 61.4452 278.29C68.0993 278.29 73.4936 272.896 73.4936 266.242C73.4936 262.668 71.9362 259.459 69.4651 257.253Z" fill="#D36E2A"/>
<path d="M61.445 269.978C63.5078 269.978 65.18 268.306 65.18 266.243C65.18 264.18 63.5078 262.508 61.445 262.508C59.3822 262.508 57.71 264.18 57.71 266.243C57.71 268.306 59.3822 269.978 61.445 269.978Z" fill="#B65615"/>
<path d="M55.0894 274.089C55.8879 274.089 56.5352 273.442 56.5352 272.643C56.5352 271.845 55.8879 271.197 55.0894 271.197C54.2909 271.197 53.6436 271.845 53.6436 272.643C53.6436 273.442 54.2909 274.089 55.0894 274.089Z" fill="#B65615"/>
<path d="M53.4028 263.351C54.2013 263.351 54.8487 262.703 54.8487 261.905C54.8487 261.106 54.2013 260.459 53.4028 260.459C52.6043 260.459 51.957 261.106 51.957 261.905C51.957 262.703 52.6043 263.351 53.4028 263.351Z" fill="#B65615"/>
<path d="M69.3071 263.351C70.1056 263.351 70.753 262.703 70.753 261.905C70.753 261.106 70.1056 260.459 69.3071 260.459C68.5086 260.459 67.8613 261.106 67.8613 261.905C67.8613 262.703 68.5086 263.351 69.3071 263.351Z" fill="#B65615"/>
<path d="M68.1021 274.089C68.9006 274.089 69.5479 273.442 69.5479 272.643C69.5479 271.845 68.9006 271.197 68.1021 271.197C67.3036 271.197 66.6562 271.845 66.6562 272.643C66.6562 273.442 67.3036 274.089 68.1021 274.089Z" fill="#B65615"/>
<path d="M61.4458 258.482C62.2443 258.482 62.8916 257.835 62.8916 257.037C62.8916 256.238 62.2443 255.591 61.4458 255.591C60.6473 255.591 60 256.238 60 257.037C60 257.835 60.6473 258.482 61.4458 258.482Z" fill="#B65615"/>
<path d="M252.293 278.291C258.947 278.291 264.341 272.897 264.341 266.243C264.341 259.589 258.947 254.194 252.293 254.194C245.638 254.194 240.244 259.589 240.244 266.243C240.244 272.897 245.638 278.291 252.293 278.291Z" fill="#D36E2A"/>
<path d="M252.293 278.291C258.947 278.291 264.341 272.897 264.341 266.243C264.341 259.589 258.947 254.194 252.293 254.194C245.638 254.194 240.244 259.589 240.244 266.243C240.244 272.897 245.638 278.291 252.293 278.291Z" fill="#D36E2A"/>
<path d="M252.293 269.978C254.355 269.978 256.028 268.306 256.028 266.243C256.028 264.18 254.355 262.508 252.293 262.508C250.23 262.508 248.558 264.18 248.558 266.243C248.558 268.306 250.23 269.978 252.293 269.978Z" fill="#B65615"/>
<path d="M245.937 274.089C246.736 274.089 247.383 273.442 247.383 272.643C247.383 271.845 246.736 271.197 245.937 271.197C245.139 271.197 244.491 271.845 244.491 272.643C244.491 273.442 245.139 274.089 245.937 274.089Z" fill="#B65615"/>
<path d="M244.25 263.351C245.049 263.351 245.696 262.703 245.696 261.905C245.696 261.106 245.049 260.459 244.25 260.459C243.452 260.459 242.805 261.106 242.805 261.905C242.805 262.703 243.452 263.351 244.25 263.351Z" fill="#B65615"/>
<path d="M260.154 263.351C260.952 263.351 261.6 262.703 261.6 261.905C261.6 261.106 260.952 260.459 260.154 260.459C259.355 260.459 258.708 261.106 258.708 261.905C258.708 262.703 259.355 263.351 260.154 263.351Z" fill="#B65615"/>
<path d="M258.95 274.089C259.748 274.089 260.396 273.442 260.396 272.643C260.396 271.845 259.748 271.197 258.95 271.197C258.151 271.197 257.504 271.845 257.504 272.643C257.504 273.442 258.151 274.089 258.95 274.089Z" fill="#B65615"/>
<path d="M252.292 258.482C253.091 258.482 253.738 257.835 253.738 257.037C253.738 256.238 253.091 255.591 252.292 255.591C251.494 255.591 250.847 256.238 250.847 257.037C250.847 257.835 251.494 258.482 252.292 258.482Z" fill="#B65615"/>
<path d="M130.307 290.101C143.48 289.533 153.697 278.394 153.129 265.222C152.561 252.05 141.422 241.833 128.25 242.401C115.078 242.969 104.86 254.108 105.428 267.28C105.997 280.452 117.135 290.669 130.307 290.101Z" fill="#233862"/>
<path d="M61.1807 137.345C61.1807 137.345 74.1339 117.807 89.1082 117.646L87.7725 138.785L61.1807 137.345Z" fill="#D57912"/>
<path d="M137.487 226.606H33.8154L42.4443 156.578C43.8467 145.196 53.5156 136.646 64.9843 136.646H137.487V226.606Z" fill="#E69D43"/>
<path d="M77.223 183.798H48.1514L52.002 156.148C52.7951 150.454 57.6646 146.216 63.4136 146.216H78.1233L77.223 183.798Z" fill="#D57912"/>
<path d="M75.0735 181.719H55.9329C53.0444 181.719 50.8166 179.175 51.1966 176.312L53.7364 157.181C54.4073 152.127 58.5269 148.366 63.3906 148.366H75.8349L75.0735 181.719Z" fill="#DCE7F9"/>
<path d="M278.497 247.691H79.0908L87.9857 106.915H266.711L278.497 247.691Z" fill="#D15050"/>
<path d="M270.692 242.352H86.4131L94.633 112.255H259.8L268.628 217.708L270.692 242.352Z" fill="#B64C41"/>
<path d="M97.0731 226.606H33.8149C28.2442 226.977 27.7057 229.731 27.7057 229.731L22.2969 255.894C22.2969 256.788 23.1188 257.519 24.1232 257.519H40.0281C41.0327 257.519 41.7573 256.783 42.1857 255.851C42.1857 255.851 44.633 252.828 46.2747 251.746C50.3866 249.035 54.8508 247.257 61.4454 247.257C69.5537 247.257 76.7165 249.837 81.0311 253.778H97.0731C99.0095 253.778 100.594 252.768 100.594 251.533V228.852C100.594 227.617 99.0095 226.606 97.0731 226.606Z" fill="#D57912"/>
<path d="M284.899 277.964H264.851C264.39 275.536 263.518 273.395 262.339 271.509C256.278 261.795 242.105 258.826 234.031 257.919C230.493 257.521 228.125 257.519 228.125 257.519H262.587C271.601 258.741 277.136 263.656 280.436 268.363C283.886 273.278 284.899 277.964 284.899 277.964Z" fill="#D15050"/>
<path d="M375.324 277.965H355.276C354.752 275.201 353.694 272.808 352.26 270.742C343.104 257.536 318.55 257.519 318.55 257.519H353.014C360.552 258.54 365.654 262.146 369.055 266.051C373.969 271.696 375.324 277.965 375.324 277.965Z" fill="#D15050"/>
<path d="M280.435 268.364C280.435 268.364 267.241 265.579 262.338 271.51C256.277 261.796 242.104 258.827 234.03 257.92C233.866 257.785 233.704 257.652 233.544 257.52H262.586C271.6 258.741 277.135 263.657 280.435 268.364Z" fill="#A03C37"/>
<path d="M369.055 266.051C369.055 266.053 369.055 266.053 369.055 266.053C369.055 266.053 358.02 265.806 352.26 270.742C343.104 257.536 318.55 257.519 318.55 257.519H353.014C360.552 258.54 365.654 262.146 369.055 266.051Z" fill="#A03C37"/>
<path d="M83.6097 261.345H377.593C379.069 261.345 380.277 260.137 380.277 258.661V250.375C380.277 248.899 379.069 247.691 377.593 247.691H83.6097C82.1335 247.691 80.9258 248.899 80.9258 250.375V258.661C80.9258 260.137 82.1335 261.345 83.6097 261.345Z" fill="#A03C37"/>
<path d="M150.556 281.363H96.1786C94.7557 281.363 93.5918 280.199 93.5918 278.776V253.709C93.5918 252.286 94.7559 251.122 96.1786 251.122H150.556C151.979 251.122 153.143 252.286 153.143 253.709V278.776C153.143 280.199 151.979 281.363 150.556 281.363Z" fill="#A03C37"/>
<path d="M270.933 242.353H86.6543L94.8742 112.255H127.06C137.137 141.974 171.221 212.431 268.869 217.708L270.933 242.353Z" fill="#C44943"/>
<path d="M35.7012 170.247C35.7012 170.247 33.1096 184.174 33.238 186.445C33.3667 188.716 35.5106 189.824 37.14 189.824L35.7012 170.247Z" fill="#B64C41"/>
<path d="M43.5701 189.824H37.2714C36.3504 189.824 35.5967 189.07 35.5967 188.149V170.759C35.5967 169.838 36.3502 169.085 37.2714 169.085H43.5701C44.4911 169.085 45.2448 169.838 45.2448 170.759V188.149C45.2448 189.07 44.4911 189.824 43.5701 189.824Z" fill="#D57912"/>
<path d="M43.0869 188.816H38.0981C37.3121 188.816 36.6689 188.173 36.6689 187.387V171.676C36.6689 170.89 37.3121 170.247 38.0981 170.247H43.0869C43.8729 170.247 44.5159 170.89 44.5159 171.676V187.387C44.5161 188.173 43.8729 188.816 43.0869 188.816Z" fill="#DCE7F9"/>
<path d="M40.4203 169.464C40.2427 169.464 40.0986 169.295 40.0986 169.085V163.232C40.0986 163.216 40.0994 163.2 40.101 163.185C40.1047 163.151 40.5023 159.819 44.0091 159.926C47.2164 160.025 48.5978 159.928 48.6116 159.927C48.7892 159.914 48.9415 160.072 48.9525 160.281C48.9636 160.49 48.8289 160.669 48.6518 160.682C48.5952 160.687 47.2282 160.784 43.9922 160.683C41.1678 160.597 40.7762 162.988 40.7418 163.258V169.086C40.7418 169.295 40.5979 169.464 40.4203 169.464Z" fill="#B64C41"/>
<path d="M74.5294 192.81H68.6634C67.842 192.81 67.1699 192.138 67.1699 191.317C67.1699 190.495 67.842 189.823 68.6634 189.823H74.5294C75.3508 189.823 76.0229 190.495 76.0229 191.317C76.0229 192.138 75.3508 192.81 74.5294 192.81Z" fill="#D57912"/>
<path d="M309.285 247.691H334.908V222.068H309.285V247.691Z" fill="#E69D43"/>
<path d="M333.842 247.691H345.573V222.068H333.842V247.691Z" fill="#D57912"/>
<path d="M131.212 169.29C132.342 169.29 133.322 169.439 134.154 169.737C134.986 170.034 135.68 170.458 136.237 171.007C136.794 171.556 137.222 172.22 137.519 172.999C137.817 173.777 137.996 174.647 138.057 175.608C138.118 176.738 138.118 177.867 138.057 178.996C137.996 179.958 137.817 180.828 137.519 181.606C137.222 182.384 136.798 183.048 136.249 183.598C135.699 184.147 135.016 184.571 134.2 184.868C133.383 185.166 132.426 185.315 131.327 185.315H125.559C125.39 185.315 125.245 185.254 125.124 185.132C125.001 185.01 124.94 184.865 124.94 184.697V169.908C124.94 169.741 125.001 169.596 125.124 169.473C125.245 169.351 125.39 169.29 125.559 169.29H131.212ZM134.967 175.608C134.936 175.12 134.841 174.666 134.681 174.246C134.52 173.827 134.284 173.46 133.971 173.147C133.658 172.835 133.265 172.59 132.792 172.415C132.319 172.239 131.754 172.152 131.098 172.152H128.03V182.453H131.212C131.838 182.453 132.38 182.365 132.838 182.19C133.296 182.014 133.677 181.774 133.982 181.469C134.287 181.163 134.52 180.797 134.681 180.37C134.841 179.943 134.936 179.485 134.967 178.996C135.027 177.867 135.027 176.738 134.967 175.608Z" fill="white"/>
<path d="M151.723 182.453C151.891 182.453 152.036 182.514 152.158 182.636C152.28 182.758 152.341 182.903 152.341 183.071V184.697C152.341 184.865 152.28 185.01 152.158 185.132C152.036 185.254 151.891 185.315 151.723 185.315H141.674C141.506 185.315 141.361 185.254 141.239 185.132C141.116 185.01 141.056 184.865 141.056 184.697V169.908C141.056 169.741 141.116 169.596 141.239 169.473C141.361 169.351 141.506 169.29 141.674 169.29H151.54C151.708 169.29 151.853 169.351 151.975 169.473C152.097 169.596 152.158 169.74 152.158 169.908V171.534C152.158 171.702 152.097 171.847 151.975 171.969C151.853 172.091 151.708 172.152 151.54 172.152H144.146V175.792H151.037C151.204 175.792 151.349 175.853 151.472 175.975C151.593 176.097 151.655 176.242 151.655 176.41V178.035C151.655 178.203 151.593 178.348 151.472 178.47C151.349 178.592 151.205 178.653 151.037 178.653H144.146V182.453H151.723V182.453Z" fill="white"/>
<path d="M165.824 182.453C165.992 182.453 166.137 182.514 166.259 182.636C166.381 182.758 166.443 182.903 166.443 183.071V184.697C166.443 184.865 166.382 185.01 166.259 185.132C166.137 185.254 165.992 185.315 165.824 185.315H155.798C155.63 185.315 155.485 185.254 155.363 185.132C155.24 185.01 155.18 184.865 155.18 184.697V169.908C155.18 169.741 155.24 169.596 155.363 169.473C155.485 169.351 155.63 169.29 155.798 169.29H157.652C157.82 169.29 157.965 169.351 158.087 169.473C158.209 169.596 158.27 169.74 158.27 169.908V182.453L165.824 182.453Z" fill="white"/>
<path d="M169.259 185.315C169.091 185.315 168.946 185.254 168.824 185.132C168.701 185.01 168.641 184.865 168.641 184.697V169.908C168.641 169.741 168.701 169.596 168.824 169.473C168.946 169.351 169.091 169.29 169.259 169.29H171.113C171.281 169.29 171.426 169.351 171.548 169.473C171.67 169.596 171.731 169.74 171.731 169.908V184.697C171.731 184.865 171.67 185.01 171.548 185.132C171.426 185.254 171.281 185.315 171.113 185.315H169.259Z" fill="white"/>
<path d="M181.117 180.782L184.963 169.862C185.008 169.74 185.088 169.615 185.203 169.485C185.317 169.355 185.489 169.29 185.718 169.29H187.457C187.625 169.29 187.77 169.351 187.892 169.473C188.014 169.596 188.076 169.74 188.076 169.908C188.076 169.939 188.076 169.965 188.076 169.988C188.076 170.011 188.06 170.061 188.03 170.137L182.902 184.536C182.81 184.796 182.703 184.991 182.581 185.12C182.459 185.25 182.276 185.315 182.032 185.315H180.201C179.956 185.315 179.773 185.25 179.651 185.12C179.529 184.991 179.422 184.796 179.331 184.536L174.203 170.137C174.172 170.061 174.157 170.011 174.157 169.988C174.157 169.965 174.157 169.939 174.157 169.908C174.157 169.741 174.218 169.596 174.34 169.473C174.462 169.351 174.607 169.29 174.775 169.29H176.515C176.744 169.29 176.916 169.355 177.03 169.485C177.145 169.615 177.225 169.741 177.271 169.862L181.117 180.782Z" fill="white"/>
<path d="M201.17 182.453C201.337 182.453 201.482 182.514 201.605 182.636C201.727 182.758 201.788 182.903 201.788 183.071V184.697C201.788 184.865 201.727 185.01 201.605 185.132C201.482 185.254 201.337 185.315 201.17 185.315H191.12C190.952 185.315 190.807 185.254 190.685 185.132C190.563 185.01 190.502 184.865 190.502 184.697V169.908C190.502 169.741 190.563 169.596 190.685 169.473C190.807 169.351 190.952 169.29 191.12 169.29H200.987C201.154 169.29 201.299 169.351 201.421 169.473C201.543 169.596 201.605 169.74 201.605 169.908V171.534C201.605 171.702 201.543 171.847 201.421 171.969C201.299 172.091 201.154 172.152 200.987 172.152H193.592V175.792H200.483C200.651 175.792 200.795 175.853 200.918 175.975C201.04 176.097 201.101 176.242 201.101 176.41V178.035C201.101 178.203 201.04 178.348 200.918 178.47C200.796 178.592 200.651 178.653 200.483 178.653H193.592V182.453H201.17V182.453Z" fill="white"/>
<path d="M211.15 169.29C213.058 169.29 214.507 169.733 215.5 170.618C216.492 171.503 216.988 172.732 216.988 174.303C216.988 175.418 216.732 176.368 216.221 177.154C215.709 177.94 214.958 178.523 213.966 178.905L217.125 184.559C217.171 184.651 217.194 184.735 217.194 184.811C217.194 184.948 217.144 185.067 217.045 185.166C216.946 185.265 216.827 185.315 216.69 185.315H214.744C214.439 185.315 214.214 185.242 214.069 185.097C213.924 184.952 213.821 184.819 213.76 184.697L210.761 179.363H207.716V184.697C207.716 184.865 207.655 185.01 207.533 185.132C207.411 185.254 207.266 185.315 207.098 185.315H205.244C205.076 185.315 204.931 185.254 204.809 185.132C204.687 185.01 204.626 184.865 204.626 184.697V169.909C204.626 169.741 204.687 169.596 204.809 169.473C204.931 169.351 205.076 169.29 205.244 169.29L211.15 169.29ZM207.716 176.501H211.036C211.906 176.501 212.6 176.349 213.119 176.043C213.637 175.738 213.897 175.158 213.897 174.303C213.897 173.449 213.637 172.877 213.119 172.587C212.6 172.297 211.906 172.152 211.036 172.152H207.716V176.501Z" fill="white"/>
<path d="M231.547 169.29C231.715 169.29 231.86 169.351 231.982 169.473C232.104 169.596 232.165 169.74 232.165 169.908C232.165 169.985 232.15 170.054 232.119 170.114L226.694 179.66V184.696C226.694 184.864 226.633 185.009 226.511 185.131C226.389 185.254 226.244 185.314 226.076 185.314H224.245C224.077 185.314 223.932 185.254 223.81 185.131C223.687 185.009 223.626 184.865 223.626 184.696V179.66L218.201 170.114C218.17 170.053 218.155 169.985 218.155 169.908C218.155 169.741 218.216 169.596 218.338 169.473C218.46 169.351 218.605 169.29 218.773 169.29H220.49C220.796 169.29 221.024 169.366 221.177 169.519C221.329 169.672 221.421 169.786 221.452 169.862L225.16 176.341L228.869 169.862C228.899 169.786 228.991 169.672 229.143 169.519C229.296 169.366 229.525 169.29 229.83 169.29H231.547Z" fill="white"/>
<path d="M498.616 202.853C499.314 201.341 498.938 200.531 498.938 200.531C498.938 200.531 482.775 194.536 481.207 194.135C480.138 193.861 468.019 188.817 461.952 185.288C458.942 183.537 456.606 185.42 453.855 187.345L451.589 188.929C448.852 190.843 449.521 195.36 452.721 196.567C461.731 199.967 475.645 202.494 478.3 203.117C484.892 204.664 496.893 205.071 496.893 205.071C496.893 205.071 498.016 204.151 498.616 202.853Z" fill="#A03C37"/>
<path d="M575.441 202.64L573.272 202.762C573.272 202.762 569.435 201.299 567.424 205.285C567.424 205.285 566.718 206.993 568.051 207.075C569.385 207.156 568.885 206.933 570.763 207.089C572.641 207.245 574.424 206.522 575.033 205.285L576.219 204.275L575.441 202.64Z" fill="#FFB27D"/>
<path d="M573.849 204.19C573.385 202.698 573.495 202.461 573.495 202.461C573.495 202.461 586.743 195.338 587.957 194.615C589.171 193.892 602.879 179.373 602.879 179.373L616.876 183.262C616.876 183.262 595.162 199.721 592.052 201.491C586.911 204.417 575.02 206.051 575.02 206.051C575.02 206.051 574.214 205.362 573.849 204.19Z" fill="#233862"/>
<path d="M592.985 212.456L487.124 234.989L473.115 169.175L578.975 146.642L592.985 212.456Z" fill="#D57912"/>
<path d="M567.233 217.937L487.124 234.989L473.115 169.175L553.223 152.123L567.233 217.937Z" fill="#E69D43"/>
<path d="M510.214 281.4C510.214 281.4 512.351 283.757 517.311 282.476C517.311 282.476 521.31 281.564 522.187 283.559C522.187 283.559 517.154 286.743 515.602 287.595C514.432 288.237 513.212 289.251 512.349 290.035C511.666 290.655 510.602 290.571 510.02 289.855C509.75 289.523 509.442 289.128 509.103 288.669C508.157 287.388 505.954 283.248 505.954 283.248L510.214 281.4Z" fill="#233862"/>
<path d="M512.114 280.169C512.114 280.169 510.143 284.713 505.593 283.878C505.593 283.878 496.309 276.211 489.941 268.246C487.873 265.66 486.111 263.041 485.077 260.645C480.854 250.868 469.456 236.285 462.209 228.894L480.34 222.335C480.34 222.335 486.148 234.017 493.875 248.367C499.443 258.706 506.007 270.431 512.114 280.169Z" fill="#2B478B"/>
<path d="M493.876 248.368L489.942 268.246C487.874 265.66 486.112 263.041 485.078 260.645C480.855 250.868 469.457 236.285 462.21 228.894L480.341 222.335C480.341 222.335 486.148 234.018 493.876 248.368Z" fill="#233862"/>
<path d="M479.055 284.038C479.055 284.038 478.857 287.665 483.253 288.149C483.253 288.149 485.907 288.203 485.913 290.511H472.995C472.995 290.511 472.625 289.58 472.534 287.585C472.465 286.054 474.019 282.051 474.019 282.051L479.055 284.038Z" fill="#233862"/>
<path d="M474.394 222.335C474.394 222.335 482.471 231.21 487.598 247.2C490.388 255.9 482.485 277.774 480.944 285.373C480.944 285.373 475.643 285.823 472.018 284.422C472.018 284.422 471.743 268.725 473.863 256.627C475.049 249.856 463.227 242.146 458.062 229.912C454.548 221.589 458.823 221.73 464.077 221.53L474.394 222.335Z" fill="#2B478B"/>
<path d="M465.069 182.738C460.575 185.276 451.375 182.936 451.375 182.936C451.375 182.936 455.111 178.664 453.413 171.785L456.942 173.577L460.732 175.502C460.732 175.502 460.978 176.717 461.148 178.899C461.191 179.461 461.23 180.089 461.257 180.775C463.564 181.474 465.069 182.738 465.069 182.738Z" fill="#FFB07B"/>
<path d="M481.548 221.876C481.548 222.666 480.638 223.044 480.445 223.083C478.632 223.414 473.571 225.383 469.012 225.834C465.173 226.237 461.609 225.855 457.693 225.068C457.175 224.964 455.957 224.636 455.871 224.139C455.763 223.597 440.767 193.569 452.424 180.671C452.698 180.368 455 180.914 457.104 181.413C459.047 181.874 460.83 181.617 462.422 180.978L464.395 182.017C466.819 183.367 471.404 188.165 471.941 191.93C472.213 193.844 473.308 195.262 473.625 196.946C473.742 197.569 473.862 198.178 473.985 198.771C474.224 199.934 474.47 201.041 474.723 202.093C475.408 204.941 476.133 207.392 476.843 209.51C477.599 211.758 478.341 213.628 479.003 215.192C479.863 217.221 480.59 218.737 481.043 219.898C481.364 220.715 481.548 221.356 481.548 221.876Z" fill="#B64C41"/>
<path d="M481.044 219.899C459.876 209.925 452.545 190.775 452.545 190.775C452.545 190.775 469.593 196.379 473.836 198.03C474.074 199.193 474.471 201.041 474.724 202.094C475.409 204.941 476.134 207.393 476.844 209.51C477.6 211.758 478.342 213.629 479.005 215.193C479.864 217.221 480.591 218.738 481.044 219.899Z" fill="#A03C37"/>
<path d="M488.619 171.277L489.023 169.371C489.023 169.371 485.94 166.113 489.786 163.258C489.786 163.258 491.49 162.18 492.071 163.416C492.652 164.652 492.212 164.235 493.078 165.965C493.943 167.695 493.764 169.547 492.565 170.42L491.838 171.78L488.619 171.277Z" fill="#FFB07B"/>
<path d="M461.148 178.898C456.729 179.146 453.854 175.498 453.854 175.498C453.854 175.498 455.853 174.391 456.942 173.576L460.732 175.501C460.732 175.501 460.978 176.716 461.148 178.898Z" fill="#EA8E50"/>
<path d="M463.031 174.362C463.031 174.362 456.335 179.167 453.407 174.951C450.478 170.735 447.642 168.516 451.794 165.27C455.945 162.023 457.902 163.049 459.222 164.218C460.541 165.388 464.697 173.003 463.031 174.362Z" fill="#FFB07B"/>
<path d="M459.928 160.41C459.688 158.79 459.148 157.649 459.148 157.649C459.148 157.649 458.728 159.39 455.547 159.15C452.366 158.91 447.324 159.463 445.644 163.088C445.537 163.318 445.441 163.556 445.357 163.799C445.052 162.995 444.979 161.791 444.979 161.791C444.375 163.352 444.979 165.304 444.979 165.304C444.97 165.36 444.963 165.418 444.955 165.475C444.252 166.068 443.663 167.913 443.663 167.913C443.875 167.399 444.392 167.063 444.852 166.856C444.838 169.677 445.982 172.434 447.99 173.255C450.926 174.455 450.902 173.54 453.855 175.498C453.855 175.498 454.647 174.516 454.107 173.856C453.567 173.195 451.526 172.235 452.666 171.274C453.807 170.314 454.227 171.394 454.647 170.734C455.067 170.074 452.966 168.153 455.667 166.353C458.368 164.552 460.168 162.031 459.928 160.41Z" fill="#233862"/>
<path d="M644.234 279.913C644.234 279.913 646.487 282.001 646.047 283.485C645.607 284.968 643.574 285.957 643.299 287.771C643.024 289.584 641.926 290.573 640.936 290.573C639.947 290.573 636.221 290.573 636.221 290.573C636.221 290.573 635.493 289.297 637.251 288.912C639.009 288.528 639.672 286.397 639.562 284.419C639.453 282.441 639.727 279.803 639.727 279.803L643.464 278.924L644.234 279.913Z" fill="#2C3A64"/>
<path d="M616.153 290.497C616.098 290.525 616.007 290.55 615.887 290.574H603.385C603.485 290.135 603.876 289.257 605.383 289.013C607.352 288.694 610.766 287.55 611.528 285.029C611.552 284.948 611.573 284.866 611.592 284.781C612.197 282.089 616.592 285.607 616.592 285.607C616.592 285.607 616.606 285.714 616.624 285.896C616.727 286.882 616.989 290.079 616.153 290.497Z" fill="#2C3A64"/>
<path d="M605.905 218.477C605.905 218.477 606.573 226.807 607.358 236.82C608.424 250.422 609.707 267.13 609.834 270.296C610.053 275.792 610.933 284.584 610.933 284.584C610.933 284.584 613.02 286.672 617.198 285.792C617.198 285.792 620.92 273.242 621.983 259.963C622 259.746 622.016 259.526 622.033 259.307C623.022 245.789 624.56 217.323 624.56 217.323L605.905 218.477Z" fill="#B64C41"/>
<path d="M605.905 218.477C605.905 218.477 606.573 226.808 607.358 236.821L621.983 259.963C622 259.745 622.016 259.526 622.033 259.307C623.022 245.789 624.56 217.323 624.56 217.323L605.905 218.477Z" fill="#A03C37"/>
<path d="M608.954 219.467C608.954 219.467 620.988 249.635 628.901 263.812C636.814 277.99 639.287 281.946 639.287 281.946C639.287 281.946 643.821 280.133 644.233 278.897C644.233 278.897 641.207 251.526 635.907 244.854C632.913 241.084 629.396 229.77 629.231 225.814C629.066 221.857 628.16 214.026 628.16 214.026L608.954 219.467Z" fill="#B64C41"/>
<path d="M610.197 170.814C610.197 170.814 604.193 178.733 599.288 179.221C599.288 179.221 599.867 176.37 601.287 174.556C600.886 173.933 600.538 173.364 600.238 172.856C599.244 171.163 598.799 170.148 598.799 170.148L600.989 166.021L602.476 163.221C602.875 164.247 603.348 165.138 603.86 165.915C606.503 169.913 610.197 170.814 610.197 170.814Z" fill="#FFB27D"/>
<path d="M603.86 165.914C603.86 165.914 603.872 170.283 600.238 172.856C599.244 171.163 598.799 170.148 598.799 170.148L600.989 166.021C602.791 165.722 603.86 165.914 603.86 165.914Z" fill="#ED975D"/>
<path d="M597.433 170.611C597.433 170.611 605.081 168.739 603.843 163.994C602.604 159.249 602.757 155.812 597.822 156.806C592.886 157.8 592.414 159.857 592.442 161.541C592.469 163.226 595.411 170.975 597.433 170.611Z" fill="#FFB27D"/>
<path d="M629.369 218.078C625.875 221.907 603.193 224.635 603.84 221.749C604.088 220.645 604.483 218.693 604.601 215.99C604.629 215.357 604.639 214.684 604.631 213.97C604.583 210.059 603.913 204.951 601.718 198.85C601.553 198.393 601.38 197.931 601.199 197.462C600.277 195.09 599.551 192.616 599.063 190.226C598.126 185.633 598.071 181.349 599.202 178.704C599.206 178.691 600.68 174.464 600.686 174.451C605.553 172.939 606.952 169.168 606.952 169.168C606.952 169.168 622.223 174.051 628.221 196.064C628.221 196.064 632.408 214.745 629.369 218.078Z" fill="#2B478B"/>
<path d="M604.601 215.99C604.629 215.357 604.639 214.684 604.631 213.97C604.583 210.059 603.913 204.951 601.718 198.85C602.632 195.844 603.671 193.382 604.591 192.333C608.331 188.071 610.245 187.581 610.245 187.581C610.245 187.581 612.308 207.933 604.601 215.99Z" fill="#233862"/>
<path d="M605.995 155.77C606.059 155.676 606.221 155.588 606.598 155.525C606.598 155.525 606.274 155.367 605.869 155.401C605.731 154.876 605.347 153.962 604.417 153.831C604.417 153.831 604.932 154.041 605.058 154.602C603.89 153.624 601.556 153.076 595.393 154.259C587.269 155.819 590.557 160.851 591.688 161.369C592.819 161.888 595.298 159.852 597.293 159.793C599.287 159.735 599.983 162.595 600.697 162.919C601.412 163.243 601.071 162.568 601.932 162.052C602.793 161.535 603.048 163.052 602.895 164.074C602.743 165.096 604.134 166.268 604.134 166.268C604.134 166.268 604.134 166.268 605.242 164.751C606.35 163.235 606.894 157.267 606.185 156.086C606.121 155.982 606.059 155.876 605.995 155.77Z" fill="#233862"/>
<path d="M583.585 211.413C583.585 211.413 580.831 211.564 580.241 211.771C579.651 211.978 577.79 213.439 577.809 213.617C577.828 213.795 577.966 213.906 578.336 213.831C578.706 213.755 579.861 213.271 579.825 213.437C579.789 213.603 576.529 215.231 576.682 215.935C576.835 216.64 579.079 217.408 580.699 217.055C582.318 216.701 585.603 214.208 585.816 214.027C586.029 213.845 583.585 211.413 583.585 211.413Z" fill="#FFB27D"/>
<path d="M583.759 212.819C582.739 211.507 583.297 210.8 583.297 210.8C583.297 210.8 595.581 198.865 596.519 197.692C597.456 196.519 600.516 179.11 600.516 179.11C600.516 179.11 602.264 174.92 606.107 173.747C609.447 172.727 611.181 171.336 612.934 173.149C615.024 175.309 615.553 178.541 614.303 181.274C611.497 187.409 605.817 199.6 604.01 201.772C600.521 205.966 589.374 212.695 586.481 214.406C586.056 214.657 585.521 214.602 585.154 214.273C584.735 213.898 584.186 213.368 583.759 212.819Z" fill="#2B478B"/>
<path d="M493.022 170.697C493.022 170.697 492.413 169.749 490.966 169.42C489.123 169.001 488.288 168.809 488.288 168.809C488.288 168.809 479.098 184.089 478.341 185.621C478.174 185.957 477.883 186.498 477.464 187.24C477.144 187.807 476.481 188.088 475.852 187.919C472.299 186.965 468.393 185.749 465.482 184.404C462.215 182.893 458.381 183.307 455.51 185.479L453.146 187.268C450.291 189.428 451.154 193.924 454.607 194.871C462.949 197.16 475.121 198.495 480.21 199.083C482.516 199.35 485.317 193.631 486.707 190.403C486.702 190.403 486.698 190.402 486.693 190.4C489.668 183.7 493.022 170.697 493.022 170.697Z" fill="#B64C41"/>
<path d="M390.826 289.978H377.492C377.631 289.499 378.08 288.678 379.555 288.438C381.613 288.103 385.179 286.908 385.974 284.277C385.999 284.192 386.022 284.105 386.042 284.017C386.673 281.205 391.266 284.878 391.266 284.878C391.266 284.878 391.279 284.992 391.299 285.183C391.405 286.21 391.676 289.504 390.826 289.978Z" fill="#233862"/>
<path d="M380.102 214.754C380.102 214.754 380.799 223.456 381.619 233.916C382.733 248.125 384.073 265.579 384.206 268.886C384.434 274.627 385.354 283.811 385.354 283.811C385.354 283.811 387.535 285.993 391.898 285.073C391.898 285.073 395.787 271.963 396.897 258.091C396.915 257.864 396.932 257.634 396.949 257.405C397.982 243.284 399.589 213.548 399.589 213.548L380.102 214.754Z" fill="#2B478B"/>
<path d="M380.102 214.754C380.102 214.754 380.799 223.455 381.619 233.916L396.897 258.091C396.915 257.864 396.932 257.634 396.949 257.405C397.982 243.284 399.589 213.548 399.589 213.548L380.102 214.754Z" fill="#233862"/>
<path d="M383.287 215.787C383.287 215.787 395.859 247.302 404.125 262.112C412.391 276.922 414.974 281.055 414.974 281.055C414.974 281.055 419.71 279.161 420.141 277.869C420.141 277.869 416.98 249.278 411.444 242.307C408.316 238.369 404.642 226.55 404.469 222.417C404.297 218.284 403.35 210.104 403.35 210.104L383.287 215.787Z" fill="#2B478B"/>
<path d="M399.828 167.22C399.828 167.22 391.322 171.388 386.418 169.841C386.418 169.841 387.625 168.295 389.737 167.144C389.568 166.145 389.436 165.277 389.36 164.541C389.153 162.844 389.153 161.882 389.153 161.882L392.434 159.261L395.547 156.752C395.301 163.806 399.828 167.22 399.828 167.22Z" fill="#FFB27D"/>
<path d="M404.311 211.718C404.329 212.246 403.217 212.849 402.726 213.076C399.086 214.697 395.691 215.829 391.844 216.207C387.298 216.678 381.923 215.641 380.075 215.678C379.886 215.678 379.717 215.603 379.566 215.471C379.434 215.377 379.339 209.813 379.434 202.816C379.434 202.533 379.434 202.25 379.452 201.967V201.873C379.49 199.138 379.584 196.271 379.717 193.404C379.981 187.105 380.471 181.032 381.301 177.675C382.3 173.714 384.564 171.092 386.619 169.187L388.317 167.678C390.014 168.018 391.806 167.924 393.598 167.038C395.559 166.076 397.705 164.996 398.045 165.26C400.61 167.165 402.311 171.488 403.235 176.958C403.763 180.107 404.028 183.634 404.009 187.331C404.009 188.689 403.971 190.085 403.896 191.462C403.443 198.93 403.896 205.418 404.159 209.171C404.235 210.266 404.292 211.114 404.311 211.718Z" fill="#B64C41"/>
<path d="M404.159 209.172C362.949 209.115 396.558 178.448 396.558 178.448L403.235 176.958C403.763 180.108 404.027 183.635 404.008 187.331C404.008 188.69 403.971 190.085 403.895 191.462C403.443 198.931 403.895 205.419 404.159 209.172Z" fill="#A03C37"/>
<path d="M353.463 208.97H379.086V183.346H353.463V208.97Z" fill="#E69D43"/>
<path d="M378.02 208.97H389.751V183.346H378.02V208.97Z" fill="#D57912"/>
<path d="M375.237 196.537L373.711 196.048C373.711 196.048 372.643 192.516 369.035 194.097C369.035 194.097 367.57 194.874 368.215 195.793C368.86 196.712 368.742 196.228 369.624 197.552C370.506 198.876 371.902 199.504 373.014 199.004L374.282 199.04L375.237 196.537Z" fill="#FFB27D"/>
<path d="M399.829 167.21C399.829 167.21 409.162 182.052 399.221 199.203C396.118 204.557 372.679 199.469 372.679 199.469C372.679 199.469 371.765 197.818 374.211 196.08C374.211 196.08 389.817 193.438 391.677 192.995C393.327 192.602 392.226 177.435 394.113 173.035C395.999 168.634 399.829 167.21 399.829 167.21Z" fill="#B64C41"/>
<path d="M395.603 159.449C395.603 159.449 393.453 163.429 389.361 164.541C389.153 162.844 389.153 161.882 389.153 161.882L392.435 159.261L395.603 159.449Z" fill="#ED985F"/>
<path d="M387.657 161.766C387.657 161.766 395.771 163.114 396.533 158.048C397.294 152.982 398.855 149.744 393.706 148.669C388.558 147.594 387.258 149.376 386.593 151.005C385.927 152.634 385.565 161.285 387.657 161.766Z" fill="#FFB27D"/>
<path d="M396.48 158.398C396.48 158.398 396.316 151.612 388.922 150.522C383.858 149.776 384.279 146.108 384.858 145.438C384.858 145.438 391.404 145.492 395.337 146.483C401.286 147.982 397.359 157.389 396.48 158.398Z" fill="#233862"/>
<path d="M420.141 278.931L419.748 278.425L415.279 280.929C415.237 281.784 415.214 282.772 415.262 283.638C415.295 284.226 415.26 284.825 415.155 285.393C415.062 285.836 414.589 287.729 413.205 288.225C411.634 288.79 411.508 289.996 414.189 289.977C414.669 289.973 415.14 289.972 415.589 289.97C417.262 289.965 418.691 288.827 419.148 287.217C419.327 286.584 419.659 285.873 420.234 285.115C420.938 284.292 421.768 283.564 422.036 282.662C422.496 281.113 420.141 278.931 420.141 278.931Z" fill="#233862"/>
</svg>
