<svg width="148" height="35" viewBox="0 0 148 35" fill="none" xmlns="http://www.w3.org/2000/svg">
<path fill-rule="evenodd" clip-rule="evenodd" d="M13.6499 24.3C12.5227 24.3 11.4417 23.8522 10.6447 23.0552C9.84767 22.2582 9.3999 21.1772 9.3999 20.05V0.5H0.899902V20.05C0.899902 27.0914 6.6085 32.8 13.6499 32.8H22.9999V24.3H13.6499ZM39.1499 9C38.1453 9 37.1505 9.19787 36.2224 9.58232C35.2942 9.96677 34.4509 10.5303 33.7405 11.2406C33.0302 11.951 32.4667 12.7943 32.0822 13.7225C31.6978 14.6506 31.4999 15.6454 31.4999 16.65C31.4999 17.6546 31.6978 18.6494 32.0822 19.5775C32.4667 20.5057 33.0302 21.349 33.7405 22.0594C34.4509 22.7697 35.2942 23.3332 36.2224 23.7177C37.1505 24.1021 38.1453 24.3 39.1499 24.3C41.1788 24.3 43.1246 23.494 44.5593 22.0594C45.9939 20.6247 46.7999 18.6789 46.7999 16.65C46.7999 14.6211 45.9939 12.6753 44.5593 11.2406C43.1246 9.80598 41.1788 9 39.1499 9ZM22.9999 16.65C22.9999 7.73095 30.2309 0.5 39.1499 0.5C48.069 0.5 55.2999 7.73095 55.2999 16.65C55.2999 25.569 48.069 32.8 39.1499 32.8C30.2309 32.8 22.9999 25.569 22.9999 16.65ZM130.95 9C128.921 9 126.975 9.80598 125.541 11.2406C124.106 12.6753 123.3 14.6211 123.3 16.65C123.3 18.6789 124.106 20.6247 125.541 22.0594C126.975 23.494 128.921 24.3 130.95 24.3C132.979 24.3 134.925 23.494 136.359 22.0594C137.794 20.6247 138.6 18.6789 138.6 16.65C138.6 14.6211 137.794 12.6753 136.359 11.2406C134.925 9.80598 132.979 9 130.95 9ZM114.8 16.65C114.8 7.73095 122.031 0.5 130.95 0.5C139.869 0.5 147.1 7.73095 147.1 16.65C147.1 25.569 139.869 32.8 130.95 32.8C122.031 32.8 114.8 25.569 114.8 16.65ZM73.1499 0.5C64.2309 0.5 56.9999 7.73095 56.9999 16.65C56.9999 25.569 64.2309 32.8 73.1499 32.8H96.9499C98.6236 32.8 100.238 32.545 101.756 32.0724L106.3 34.5L111.203 25.3166C112.448 22.9788 113.1 20.3707 113.1 17.7218V16.65C113.1 7.73095 105.869 0.5 96.9499 0.5H73.1499ZM104.6 16.65C104.6 14.6211 103.794 12.6753 102.359 11.2406C100.925 9.80598 98.9788 9 96.9499 9H73.1499C72.1453 9 71.1505 9.19787 70.2224 9.58232C69.2942 9.96677 68.4509 10.5303 67.7405 11.2406C67.0302 11.951 66.4667 12.7943 66.0822 13.7225C65.6978 14.6506 65.4999 15.6454 65.4999 16.65C65.4999 17.6546 65.6978 18.6494 66.0822 19.5775C66.4667 20.5057 67.0302 21.349 67.7405 22.0594C68.4509 22.7697 69.2942 23.3332 70.2224 23.7177C71.1505 24.1021 72.1453 24.3 73.1499 24.3H96.9499C98.9686 24.3001 100.905 23.5023 102.338 22.0804C103.771 20.6586 104.584 18.7281 104.6 16.7095V16.65Z" fill="#85E211"/>
</svg>
