<svg width="417" height="485" viewBox="0 0 417 485" fill="none" xmlns="http://www.w3.org/2000/svg">
<path d="M208.436 484.419C323.552 484.419 416.872 431.405 416.872 366.01C416.872 300.615 323.552 247.602 208.436 247.602C93.3201 247.602 0 300.615 0 366.01C0 431.405 93.3201 484.419 208.436 484.419Z" fill="#F5F5F5"/>
<path d="M295.174 440.669L139.585 350.832C138.216 350.043 137.079 348.908 136.289 347.54C135.498 346.173 135.082 344.621 135.082 343.041C135.082 341.462 135.498 339.91 136.289 338.542C137.079 337.174 138.216 336.039 139.585 335.251L154.933 325.572C157.583 324.046 160.587 323.243 163.644 323.243C166.702 323.243 169.705 324.046 172.355 325.572L327.965 415.42C329.334 416.209 330.471 417.344 331.261 418.711C332.052 420.079 332.468 421.631 332.468 423.21C332.468 424.79 332.052 426.342 331.261 427.71C330.471 429.077 329.334 430.212 327.965 431.001L312.617 440.669C309.966 442.203 306.958 443.011 303.896 443.011C300.833 443.011 297.825 442.203 295.174 440.669Z" fill="#E0E0E0"/>
<path d="M58.6011 358.765C77.2487 358.765 92.3655 350.084 92.3655 339.376C92.3655 328.668 77.2487 319.987 58.6011 319.987C39.9535 319.987 24.8367 328.668 24.8367 339.376C24.8367 350.084 39.9535 358.765 58.6011 358.765Z" fill="#E6E6E6"/>
<path d="M350.348 363.208L365.157 371.723C365.157 371.723 357.594 347.955 361.624 323.996C363.148 314.941 366.416 310.446 367.559 308.023C368.701 305.601 377.555 290.633 369.674 283.779C361.794 276.924 343.462 290.707 344.457 327.592C344.909 339.665 346.888 351.632 350.348 363.208Z" fill="#85E211"/>
<path opacity="0.5" d="M350.348 363.208L365.157 371.723C365.157 371.723 357.594 347.955 361.624 323.996C363.148 314.941 366.416 310.446 367.559 308.023C368.701 305.601 377.555 290.633 369.674 283.779C361.794 276.924 343.462 290.707 344.457 327.592C344.909 339.665 346.888 351.632 350.348 363.208Z" fill="black"/>
<path d="M357.235 367.692C357.127 367.695 357.021 367.663 356.932 367.603C356.843 367.542 356.775 367.455 356.737 367.354C356.684 367.195 351.025 351.73 351.205 326.872C351.385 302.015 364.449 288.517 364.575 288.39C364.625 288.341 364.683 288.301 364.748 288.275C364.812 288.248 364.881 288.234 364.951 288.234C365.021 288.234 365.09 288.248 365.154 288.275C365.219 288.301 365.277 288.341 365.327 288.39C365.376 288.439 365.415 288.498 365.442 288.562C365.469 288.627 365.483 288.696 365.483 288.766C365.483 288.836 365.469 288.905 365.442 288.969C365.415 289.034 365.376 289.092 365.327 289.141C365.2 289.268 352.443 302.364 352.263 326.883C352.083 351.402 357.668 366.846 357.732 366.994C357.779 367.126 357.773 367.271 357.713 367.398C357.654 367.525 357.546 367.623 357.414 367.671C357.356 367.689 357.295 367.696 357.235 367.692Z" fill="white"/>
<path d="M356.526 366.847L376.772 378.482C378.881 379.729 381.383 380.135 383.779 379.62C386.174 379.104 388.288 377.705 389.698 375.7C391.038 373.615 391.603 371.125 391.295 368.666C390.322 358.152 385.752 355.729 391.348 351.043C396.943 346.357 398.403 346.029 398.086 341.523C397.769 337.017 394.69 335.05 393.231 333.273C391.771 331.496 387.73 327.772 390.48 322.272C393.231 316.771 396.986 311.451 391.295 309.018C387.899 307.558 382.24 309.504 378.517 313.545C374.793 317.586 371.726 320.495 368.161 321.468C364.596 322.441 357.171 322.6 357.488 328.745C357.805 334.891 359.434 336.996 357.975 339.736C355.224 344.855 343.261 347.764 356.526 366.847Z" fill="#85E211"/>
<path d="M366.532 373.108C366.4 373.104 366.274 373.053 366.177 372.963C366.08 372.874 366.019 372.753 366.003 372.622C366.003 372.262 362.893 335.959 387.857 311.799C387.96 311.714 388.091 311.671 388.225 311.679C388.358 311.687 388.483 311.745 388.576 311.841C388.668 311.938 388.72 312.065 388.723 312.199C388.725 312.332 388.676 312.462 388.587 312.561C363.983 336.371 367.029 372.167 367.061 372.527C367.073 372.665 367.03 372.803 366.94 372.91C366.851 373.017 366.724 373.084 366.585 373.098L366.532 373.108Z" fill="white"/>
<path d="M370.541 341.861C370.408 341.862 370.279 341.812 370.181 341.722C370.083 341.631 370.023 341.507 370.012 341.375C369.791 338.561 368.998 335.823 367.684 333.326C366.369 330.829 364.559 328.626 362.365 326.851C362.307 326.811 362.259 326.76 362.221 326.701C362.184 326.642 362.159 326.576 362.147 326.507C362.135 326.439 362.137 326.368 362.153 326.3C362.168 326.232 362.197 326.168 362.238 326.111C362.277 326.054 362.327 326.005 362.385 325.968C362.443 325.931 362.508 325.906 362.576 325.894C362.644 325.882 362.713 325.884 362.781 325.899C362.848 325.915 362.911 325.944 362.967 325.984C365.306 327.838 367.234 330.158 368.628 332.797C370.023 335.435 370.855 338.335 371.07 341.311C371.082 341.453 371.037 341.593 370.946 341.702C370.855 341.811 370.725 341.88 370.584 341.893L370.541 341.861Z" fill="white"/>
<path d="M368.817 348.092C368.689 348.093 368.565 348.048 368.468 347.965C368.363 347.871 368.299 347.74 368.289 347.6C368.279 347.46 368.325 347.321 368.415 347.214C368.669 346.918 374.921 340.021 389.571 341.851C389.71 341.869 389.836 341.942 389.921 342.053C390.006 342.164 390.044 342.304 390.026 342.443C390.007 342.583 389.935 342.71 389.824 342.797C389.714 342.883 389.573 342.924 389.434 342.909C375.365 341.142 369.262 347.849 369.198 347.912C369.15 347.966 369.091 348.01 369.026 348.041C368.961 348.072 368.89 348.089 368.817 348.092Z" fill="white"/>
<path d="M290.436 429.933L153.601 350.927C143.943 345.353 136.116 330.396 136.116 317.522V24.5164C136.116 11.6432 143.943 5.73019 153.601 11.3047L290.436 90.3105C300.093 95.885 307.921 110.842 307.921 123.715V416.721C307.921 429.584 300.093 435.507 290.436 429.933Z" fill="#455A64"/>
<path d="M306.197 81.0965L169.351 2.09067C165.226 -0.289345 161.439 -0.564369 158.445 0.895371C158.079 1.0789 157.726 1.28743 157.388 1.51946L142.05 10.4366C145.139 8.58545 149.179 8.72297 153.611 11.2828L290.446 90.2886C300.104 95.8631 307.931 110.82 307.931 123.693V416.699C307.931 423.511 305.742 428.335 302.251 430.62L317.388 421.808C321.249 419.756 323.735 414.732 323.735 407.528V114.522C323.735 101.628 315.854 86.671 306.197 81.0965Z" fill="#37474F"/>
<path d="M307.921 123.694V416.7C307.921 423.512 305.731 428.335 302.24 430.62L317.388 421.809C321.249 419.757 323.735 414.732 323.735 407.529V114.523L307.974 123.673L307.921 123.694Z" fill="#263238"/>
<path d="M323.682 137.255L307.921 146.352V153.46L323.682 144.353V137.255Z" fill="#37474F"/>
<path d="M316.775 184.527C315.368 185.342 314.225 184.474 314.225 182.602V167.317C314.24 166.361 314.478 165.423 314.92 164.576C315.363 163.729 315.998 162.998 316.775 162.441C318.181 161.626 319.324 162.441 319.324 164.366V179.651C319.31 180.606 319.072 181.545 318.629 182.392C318.186 183.239 317.551 183.97 316.775 184.527Z" fill="#37474F"/>
<path d="M314.215 182.644V167.317C314.229 166.361 314.467 165.423 314.91 164.576C315.353 163.729 315.988 162.998 316.764 162.441C316.996 162.278 317.266 162.179 317.548 162.153C317.83 162.127 318.114 162.175 318.372 162.292L316.457 161.309C316.195 161.183 315.905 161.128 315.615 161.15C315.325 161.173 315.047 161.271 314.807 161.436C314.03 161.993 313.394 162.724 312.949 163.57C312.505 164.417 312.265 165.356 312.247 166.312V181.586C312.208 181.972 312.266 182.362 312.418 182.719C312.57 183.076 312.809 183.389 313.115 183.628L315.114 184.686C314.796 184.456 314.545 184.146 314.387 183.787C314.228 183.428 314.169 183.034 314.215 182.644Z" fill="#455A64"/>
<path d="M316.775 221.518C315.368 222.332 314.225 221.518 314.225 219.592V204.307C314.24 203.352 314.479 202.414 314.921 201.567C315.364 200.72 315.999 199.989 316.775 199.431C318.181 198.617 319.324 199.431 319.324 201.367V216.641C319.311 217.597 319.074 218.536 318.631 219.384C318.188 220.231 317.552 220.962 316.775 221.518Z" fill="#37474F"/>
<path d="M314.215 219.593V204.308C314.23 203.352 314.468 202.414 314.911 201.567C315.354 200.72 315.988 199.989 316.764 199.431C316.997 199.272 317.267 199.175 317.549 199.149C317.83 199.123 318.113 199.169 318.372 199.283L316.457 198.289C316.197 198.157 315.905 198.1 315.614 198.122C315.323 198.144 315.044 198.246 314.807 198.416C314.028 198.971 313.391 199.702 312.946 200.549C312.501 201.396 312.262 202.336 312.247 203.292V218.609C312.207 218.995 312.265 219.385 312.417 219.742C312.568 220.099 312.809 220.412 313.115 220.65L315.114 221.708C314.783 221.473 314.523 221.151 314.364 220.778C314.206 220.404 314.154 219.994 314.215 219.593Z" fill="#455A64"/>
<path d="M285.655 98.529L151.189 20.8666C150.628 20.5438 149.992 20.3733 149.345 20.3721C148.697 20.3709 148.061 20.539 147.498 20.8598C146.936 21.1805 146.467 21.6428 146.139 22.2006C145.81 22.7585 145.633 23.3926 145.625 24.04V317.522C145.625 327.317 152.575 339.344 161.058 344.241L292.223 420.01C292.845 420.368 293.551 420.556 294.268 420.556C294.986 420.555 295.691 420.366 296.312 420.007C296.934 419.648 297.45 419.132 297.809 418.511C298.168 417.889 298.358 417.185 298.359 416.467V120.563C298.411 112.481 292.678 102.57 285.655 98.529Z" fill="#85E211"/>
<path opacity="0.9" d="M285.655 98.529L151.189 20.8666C150.628 20.5438 149.992 20.3733 149.345 20.3721C148.697 20.3709 148.061 20.539 147.498 20.8598C146.936 21.1805 146.467 21.6428 146.139 22.2006C145.81 22.7585 145.633 23.3926 145.625 24.04V317.522C145.625 327.317 152.575 339.344 161.058 344.241L292.223 420.01C292.845 420.368 293.551 420.556 294.268 420.556C294.986 420.555 295.691 420.366 296.312 420.007C296.934 419.648 297.45 419.132 297.809 418.511C298.168 417.889 298.358 417.185 298.359 416.467V120.563C298.411 112.481 292.678 102.57 285.655 98.529Z" fill="white"/>
<path d="M191.406 41.144L193.49 49.9131L238.065 75.6172L245.765 71.513L191.406 41.144Z" fill="#455A64"/>
<path d="M204.512 49.6172C204.512 51.0769 203.454 51.6587 202.227 50.9394C201.568 50.5021 201.021 49.9163 200.63 49.2293C200.239 48.5422 200.014 47.7729 199.974 46.9833C199.974 45.5341 201.032 44.9418 202.259 45.6716C202.917 46.1067 203.464 46.6904 203.856 47.3758C204.247 48.0612 204.472 48.8289 204.512 49.6172Z" fill="#263238"/>
<path d="M234.543 68.1805C234.299 68.1786 234.059 68.1168 233.845 68.0007L211.081 55.3073C210.76 55.1186 210.525 54.8116 210.427 54.452C210.328 54.0925 210.375 53.7088 210.556 53.3829C210.737 53.057 211.038 52.8148 211.395 52.7079C211.752 52.601 212.137 52.638 212.467 52.8109L235.241 65.5043C235.518 65.6582 235.736 65.8997 235.86 66.1909C235.985 66.4822 236.009 66.8065 235.929 67.113C235.849 67.4195 235.669 67.6907 235.418 67.8839C235.167 68.0772 234.859 68.1815 234.543 68.1805Z" fill="#263238"/>
<path d="M173.826 81.9429C172.44 81.1389 171.435 81.8371 171.435 83.6036C171.435 84.487 171.653 85.3567 172.07 86.1354C172.487 86.9141 173.09 87.5778 173.826 88.0674C174.22 88.3065 174.671 88.4329 175.132 88.4329C175.593 88.4329 176.045 88.3065 176.438 88.0674L178.649 92.0658C177.871 92.495 176.99 92.6995 176.102 92.6565C175.215 92.6136 174.357 92.3248 173.625 91.8225C171.829 90.7237 170.331 89.1991 169.265 87.3836C168.198 85.5681 167.596 83.5178 167.511 81.414C167.511 77.4896 170.145 76.1251 173.773 78.2406C175.822 79.56 177.5 81.3804 178.649 83.5295L176.438 85.2854C175.893 83.9511 174.989 82.7941 173.826 81.9429Z" fill="#85E211"/>
<path d="M191.374 95.1966C191.374 99.1527 188.698 100.486 185.028 98.3699C183.18 97.266 181.634 95.7227 180.527 93.8773C179.42 92.032 178.786 89.9416 178.681 87.7921C178.681 83.836 181.357 82.5032 185.028 84.6188C186.879 85.7177 188.429 87.2598 189.537 89.1062C190.645 90.9527 191.276 93.0455 191.374 95.1966ZM182.605 90.151C182.624 91.0592 182.858 91.95 183.288 92.75C183.719 93.55 184.333 94.2363 185.08 94.7523C186.392 95.5139 187.45 94.7523 187.45 92.9541C187.446 92.0664 187.229 91.1925 186.817 90.4064C186.404 89.6202 185.809 88.9449 185.08 88.4374C183.748 87.6652 182.605 88.321 182.605 90.151Z" fill="#85E211"/>
<path d="M195.637 90.9973L200.207 100.517V93.6629L203.666 95.6621V109.001L200.492 107.16L195.944 97.7248V104.537L192.464 102.527V89.1567L195.637 90.9973Z" fill="#85E211"/>
<path d="M214.973 102.157V105.648L211.673 103.744V113.603L207.855 111.392V101.533L204.575 99.6398V96.1597L214.973 102.157Z" fill="#85E211"/>
<path d="M222.42 117.918L218.083 115.411L217.491 116.956L213.577 114.692L218.454 104.167L222.378 106.431L227.074 122.488L223.002 120.14L222.42 117.918ZM221.479 114.216L220.294 109.657L219.078 112.83L221.479 114.216Z" fill="#85E211"/>
<path d="M233.136 116.183C231.75 115.39 230.745 116.077 230.745 117.854C230.747 118.737 230.966 119.606 231.383 120.385C231.8 121.163 232.402 121.827 233.136 122.318C233.532 122.555 233.985 122.68 234.447 122.68C234.909 122.68 235.362 122.555 235.759 122.318L237.97 126.317C237.188 126.741 236.306 126.943 235.418 126.9C234.53 126.857 233.671 126.571 232.935 126.073C231.137 124.974 229.639 123.447 228.572 121.63C227.506 119.812 226.904 117.76 226.821 115.654C226.821 111.73 229.465 110.365 233.083 112.481C235.129 113.807 236.809 115.625 237.97 117.77L235.759 119.515C235.202 118.188 234.295 117.036 233.136 116.183Z" fill="#85E211"/>
<path d="M248.399 121.462V124.942L245.099 123.038V132.928L241.281 130.717V120.859L238.001 118.965V115.485L248.399 121.462Z" fill="#85E211"/>
<path d="M259.686 137.836C260.627 138.376 261.347 137.952 261.347 136.63V128.94L265.176 131.14V138.83C265.176 142.374 263.06 143.432 259.675 141.496C258.045 140.59 256.674 139.281 255.694 137.694C254.714 136.107 254.158 134.294 254.08 132.431V124.741L257.909 126.952V134.642C257.924 135.278 258.093 135.902 258.403 136.458C258.712 137.015 259.153 137.488 259.686 137.836Z" fill="#85E211"/>
<path d="M271.343 137.878C270.909 137.635 270.634 137.624 270.634 138.026C270.634 139.698 276.61 142.109 276.61 146.943C276.61 149.905 274.357 149.916 271.755 148.414C269.468 147.012 267.497 145.15 265.969 142.945L267.386 140.449C268.549 142.25 270.042 143.814 271.787 145.061C272.347 145.389 272.707 145.389 272.707 144.913C272.707 143.178 266.72 140.872 266.72 136.186C266.72 133.52 268.666 133.012 271.67 134.705C273.606 135.875 275.309 137.392 276.695 139.179L275.309 141.739C274.165 140.281 272.831 138.983 271.343 137.878Z" fill="#85E211"/>
<path d="M154.584 147.673C158.876 142.402 161.037 135.713 160.639 128.927C160.242 122.141 157.316 115.75 152.438 111.016C147.561 106.281 141.086 103.547 134.291 103.352C127.496 103.157 120.875 105.516 115.734 109.963C110.593 114.41 107.305 120.622 106.519 127.374C105.733 134.126 107.507 140.928 111.489 146.436C115.472 151.945 121.374 155.761 128.032 157.132C134.69 158.502 141.62 157.328 147.455 153.84L160.698 159.594L154.584 147.673Z" fill="#85E211"/>
<path opacity="0.4" d="M154.584 147.673C158.876 142.402 161.037 135.713 160.639 128.927C160.242 122.141 157.316 115.75 152.438 111.016C147.561 106.281 141.086 103.547 134.291 103.352C127.496 103.157 120.875 105.516 115.734 109.963C110.593 114.41 107.305 120.622 106.519 127.374C105.733 134.126 107.507 140.928 111.489 146.436C115.472 151.945 121.374 155.761 128.032 157.132C134.69 158.502 141.62 157.328 147.455 153.84L160.698 159.594L154.584 147.673Z" fill="black"/>
<path d="M123.443 129.056C123.443 128.643 123.147 128.411 122.608 128.411C121.356 128.575 120.188 129.126 119.265 129.987L117.763 127.067C119.344 125.878 121.254 125.205 123.232 125.142C125.77 125.142 127.696 126.475 127.696 128.464C127.696 129.881 126.638 131.245 125.284 132.61L123.39 134.482H127.865V137.592H118.25V135.043L122.534 130.611C122.995 130.203 123.314 129.658 123.443 129.056Z" fill="white"/>
<path d="M135.692 125.322L132.773 132.324H133.968V129.965H137.649V132.324H139.046V135.212H137.649V137.592H133.968V135.212H128.732V132.589L131.906 125.322H135.692Z" fill="white"/>
<path d="M150.406 131.489V137.592H146.471V132.62C146.494 132.459 146.481 132.294 146.435 132.137C146.388 131.98 146.309 131.835 146.202 131.712C146.094 131.589 145.962 131.49 145.813 131.422C145.664 131.354 145.503 131.319 145.339 131.319C144.567 131.319 144.08 131.922 144.08 132.853V137.592H140.146V124.624H144.08V129.394C144.388 128.908 144.817 128.509 145.325 128.239C145.834 127.968 146.403 127.834 146.979 127.85C147.45 127.838 147.919 127.925 148.355 128.107C148.79 128.288 149.183 128.559 149.506 128.903C149.83 129.246 150.077 129.654 150.232 130.1C150.387 130.545 150.446 131.018 150.406 131.489Z" fill="white"/>
<path d="M278.715 229.779V361.208C278.717 362.695 278.328 364.155 277.586 365.444C276.844 366.732 275.776 367.802 274.489 368.546C273.203 369.29 271.743 369.682 270.256 369.683C268.77 369.683 267.309 369.292 266.022 368.549L195.235 327.676L182.69 320.441C178.37 317.943 174.781 314.355 172.283 310.036C169.784 305.716 168.463 300.817 168.452 295.826V164.386C168.45 162.9 168.839 161.439 169.581 160.151C170.323 158.863 171.391 157.793 172.678 157.048C173.964 156.304 175.425 155.912 176.911 155.912C178.398 155.911 179.858 156.302 181.145 157.045L264.499 205.164C268.82 207.658 272.409 211.246 274.905 215.566C277.401 219.887 278.715 224.789 278.715 229.779Z" fill="#85E211"/>
<path opacity="0.5" d="M278.715 229.779V361.208C278.717 362.695 278.328 364.155 277.586 365.444C276.844 366.732 275.776 367.802 274.489 368.546C273.203 369.29 271.743 369.682 270.256 369.683C268.77 369.683 267.309 369.292 266.022 368.549L195.235 327.676L182.69 320.441C178.37 317.943 174.781 314.355 172.283 310.036C169.784 305.716 168.463 300.817 168.452 295.826V164.386C168.45 162.9 168.839 161.439 169.581 160.151C170.323 158.863 171.391 157.793 172.678 157.048C173.964 156.304 175.425 155.912 176.911 155.912C178.398 155.911 179.858 156.302 181.145 157.045L264.499 205.164C268.82 207.658 272.409 211.246 274.905 215.566C277.401 219.887 278.715 224.789 278.715 229.779Z" fill="white"/>
<path d="M237.937 307.547C237.937 307.547 251.191 329.528 241.618 354.311L195.203 327.676L237.937 307.547Z" fill="#263238"/>
<path d="M259.075 208.789C260.078 200.643 254.287 193.226 246.141 192.223C237.994 191.22 230.577 197.01 229.574 205.157C228.571 213.303 234.362 220.72 242.508 221.724C250.654 222.727 258.072 216.936 259.075 208.789Z" fill="#263238"/>
<path d="M244.4 165.286C244.4 165.286 248.959 157.882 250.356 158.421C251.752 158.961 249.446 166.016 249.446 166.016C249.446 166.016 256.343 167.455 255.063 169.189C253.783 170.924 245.352 170.512 245.352 170.512L244.4 165.286Z" fill="#263238"/>
<path d="M247.574 184.368C244.4 208.211 224.302 208.211 224.302 208.211L182.203 189.678C182.203 189.678 179.029 186.896 178.056 180.507C177.683 177.89 177.683 175.233 178.056 172.616C178.056 172.616 178.056 172.563 178.056 172.542C179.4 162.514 186.899 151.736 203.231 148.425C206.81 147.702 210.454 147.348 214.105 147.367C215.872 147.361 217.637 147.449 219.394 147.631C232.088 148.88 240.984 154.803 245.225 164.016C246.179 166.096 246.889 168.279 247.341 170.522C248.202 175.091 248.281 179.773 247.574 184.368Z" fill="#263238"/>
<path d="M146.503 230.488C146.503 230.488 131.556 229.969 125.802 244.535C125.802 244.535 132.148 248.819 140.473 244.535C148.798 240.251 146.503 230.488 146.503 230.488Z" fill="#85E211"/>
<path opacity="0.5" d="M146.503 230.488C146.503 230.488 131.556 229.969 125.802 244.535C125.802 244.535 132.148 248.819 140.473 244.535C148.798 240.251 146.503 230.488 146.503 230.488Z" fill="black"/>
<path d="M146.08 237.501C146.08 237.501 141.848 219.117 139.616 218.895C137.385 218.673 136.951 224.501 137.131 227.791L131.842 216.409C131.674 216.055 131.436 215.74 131.141 215.482C130.847 215.224 130.503 215.029 130.13 214.909C129.757 214.789 129.364 214.747 128.974 214.784C128.585 214.822 128.207 214.94 127.865 215.129C122.576 218.038 113.299 226.881 132.857 248.745L146.08 237.501Z" fill="#945959"/>
<path d="M200.238 224.787L197.065 224.374C193.867 223.95 190.614 224.385 187.639 225.634C184.665 226.883 182.077 228.902 180.14 231.482L161.259 256.615L146.45 230.488C146.45 230.488 144.673 248.259 125.749 244.535L146.069 278.733C147.355 280.898 149.145 282.721 151.287 284.045C153.428 285.37 155.858 286.158 158.369 286.342C160.881 286.525 163.4 286.1 165.711 285.101C168.023 284.103 170.059 282.56 171.646 280.606L189.036 259.228L200.238 224.787Z" fill="#85E211"/>
<path d="M240.54 283.44C236.308 294.166 235.843 296.261 238.424 301.624C240.221 305.584 241.638 309.707 242.655 313.936C242.655 313.936 223.044 335.917 195.129 327.687L182.584 320.452C179.975 318.948 177.625 317.033 175.623 314.782L179.442 286.307C179.634 284.808 179.482 283.285 178.998 281.854L174.989 270.102C173.032 264.362 172.741 258.185 174.149 252.287C175.557 246.388 178.606 241.009 182.943 236.771L196.419 223.602L231.813 228.129L237.102 229.641C240.564 230.643 243.549 232.86 245.508 235.886C247.467 238.911 248.268 242.542 247.764 246.111C246.029 258.593 243.195 276.702 240.54 283.44Z" fill="#85E211"/>
<path opacity="0.5" d="M240.54 283.44C236.308 294.166 235.843 296.261 238.424 301.624C240.221 305.584 241.638 309.707 242.655 313.936C242.655 313.936 223.044 335.917 195.129 327.687L182.584 320.452C179.975 318.948 177.625 317.033 175.623 314.782L179.442 286.307C179.634 284.808 179.482 283.285 178.998 281.854L174.989 270.102C173.032 264.362 172.741 258.185 174.149 252.287C175.557 246.388 178.606 241.009 182.943 236.771L196.419 223.602L231.813 228.129L237.102 229.641C240.564 230.643 243.549 232.86 245.508 235.886C247.467 238.911 248.268 242.542 247.764 246.111C246.029 258.593 243.195 276.702 240.54 283.44Z" fill="black"/>
<path d="M219.193 251.4L212.106 245.36C211.356 244.718 210.451 244.283 209.481 244.097C208.51 243.912 207.509 243.983 206.574 244.302L198.006 247.254L196.853 242.451C196.673 241.704 196.344 241.001 195.885 240.385C195.426 239.768 194.847 239.251 194.182 238.865C193.518 238.478 192.783 238.231 192.02 238.136C191.257 238.042 190.483 238.103 189.745 238.315L186.032 239.373L192.315 227.336C194.367 223.415 197.527 220.185 201.402 218.048L203.866 216.694L224.229 217.752C224.229 217.752 231.813 220.925 231.813 228.066L219.193 251.337" fill="#85E211"/>
<path d="M224.313 226.775L203.898 242.684V192.026H224.313V226.775Z" fill="#945959"/>
<path d="M204.216 222.597L198.006 247.296L224.229 226.775L204.216 222.597Z" fill="#945959"/>
<path d="M203.898 218.926C208.438 217.24 212.587 214.649 216.095 211.311C219.603 207.972 222.395 203.956 224.303 199.505V192.026H203.887L203.898 218.926Z" fill="#703838"/>
<path d="M208.298 154.486C200.555 154.486 184.096 158.802 182.192 179.069C180.288 199.336 182.129 215.033 192.58 216.557C203.031 218.08 227.317 210.495 230.575 184.262C233.833 158.029 215.84 154.486 208.298 154.486Z" fill="#945959"/>
<path d="M196.112 187.648V199.59L189.11 197.443L196.112 187.648Z" fill="#703838"/>
<path d="M203.898 192.143C205.242 192.143 206.331 191.054 206.331 189.71C206.331 188.367 205.242 187.277 203.898 187.277C202.554 187.277 201.465 188.367 201.465 189.71C201.465 191.054 202.554 192.143 203.898 192.143Z" fill="#263238"/>
<path d="M190.316 188.017C190.314 188.498 190.169 188.967 189.901 189.366C189.632 189.765 189.251 190.075 188.807 190.257C188.362 190.44 187.873 190.487 187.402 190.391C186.931 190.296 186.498 190.064 186.159 189.723C185.82 189.383 185.589 188.949 185.496 188.477C185.403 188.006 185.452 187.517 185.636 187.073C185.821 186.629 186.132 186.25 186.532 185.983C186.932 185.716 187.402 185.574 187.883 185.574C188.203 185.574 188.52 185.637 188.816 185.76C189.112 185.883 189.381 186.063 189.607 186.29C189.833 186.517 190.012 186.787 190.134 187.083C190.255 187.379 190.317 187.697 190.316 188.017Z" fill="#263238"/>
<path d="M184.911 182.94L189.671 180.116C189.671 180.116 187.852 178.223 186.032 179.354C184.213 180.486 184.911 182.94 184.911 182.94Z" fill="#263238"/>
<path d="M192.823 204.435C195.141 204.604 197.449 203.985 199.371 202.679C199.371 202.679 199.826 206.138 196.927 206.793C194.029 207.449 192.823 204.435 192.823 204.435Z" fill="#703838"/>
<path d="M188.666 161.383C188.666 161.383 191.575 189.361 229.623 190.239C229.623 190.239 241.121 162.43 218.4 153.397C195.679 144.363 188.666 161.383 188.666 161.383Z" fill="#263238"/>
<path d="M240.825 186.05L236.15 183.342C234.373 182.284 231.919 182.432 229.2 183.998C223.805 187.108 219.426 194.692 219.426 200.922C219.426 204.043 220.484 206.211 222.303 207.269L226.894 209.914L227.159 210.062L227.317 210.157C229.052 211.003 231.369 210.802 233.918 209.332C239.313 206.158 243.692 198.638 243.692 192.407C243.66 189.255 242.571 187.076 240.825 186.05Z" fill="#85E211"/>
<path d="M240.788 201.983C244.603 195.376 244.603 188.234 240.788 186.031C236.974 183.829 230.789 187.4 226.974 194.007C223.159 200.615 223.159 207.757 226.974 209.959C230.788 212.161 236.973 208.59 240.788 201.983Z" fill="#85E211"/>
<path opacity="0.5" d="M240.788 201.983C244.603 195.376 244.603 188.234 240.788 186.031C236.974 183.829 230.789 187.4 226.974 194.007C223.159 200.615 223.159 207.757 226.974 209.959C230.788 212.161 236.973 208.59 240.788 201.983Z" fill="black"/>
<path d="M242.698 191.921L239.524 190.07C238.318 189.351 236.636 189.446 234.775 190.514C232.83 191.785 231.212 193.496 230.05 195.508C228.889 197.52 228.217 199.777 228.09 202.097C228.09 204.213 228.841 205.725 230.057 206.423L233.23 208.232C233.287 208.273 233.347 208.309 233.41 208.338L233.516 208.401C234.26 208.684 235.062 208.779 235.851 208.679C236.64 208.58 237.393 208.288 238.043 207.83C239.987 206.56 241.604 204.851 242.766 202.841C243.927 200.831 244.599 198.576 244.729 196.258C244.644 194.111 243.903 192.619 242.698 191.921Z" fill="#85E211"/>
<path d="M244.644 196.237C244.515 198.555 243.842 200.81 242.681 202.82C241.52 204.83 239.902 206.539 237.959 207.809C234.256 209.924 231.263 208.211 231.263 203.948C231.388 201.628 232.06 199.37 233.224 197.359C234.388 195.348 236.01 193.641 237.959 192.376C241.65 190.239 244.644 191.963 244.644 196.237Z" fill="#85E211"/>
<path opacity="0.3" d="M244.644 196.237C244.515 198.555 243.842 200.81 242.681 202.82C241.52 204.83 239.902 206.539 237.959 207.809C234.256 209.924 231.263 208.211 231.263 203.948C231.388 201.628 232.06 199.37 233.224 197.359C234.388 195.348 236.01 193.641 237.959 192.376C241.65 190.239 244.644 191.963 244.644 196.237Z" fill="black"/>
<path d="M226.302 149.028C223.27 146.686 219.556 145.397 215.724 145.357H214.783C210.903 145.316 207.029 145.67 203.221 146.415C203.919 146.415 204.617 146.415 205.337 146.415H203.221V148.383H205.189C211.969 148.613 218.395 151.471 223.107 156.353C227.818 161.235 230.447 167.757 230.438 174.542V182.866C230.438 183.195 230.507 183.521 230.64 183.822C230.774 184.122 230.969 184.392 231.213 184.612C231.458 184.832 231.746 184.999 232.059 185.101C232.371 185.203 232.702 185.238 233.03 185.204H233.273L235.388 184.548C235.247 184.593 235.102 184.621 234.955 184.633C235.585 184.547 236.163 184.233 236.576 183.749C236.99 183.265 237.211 182.646 237.197 182.009V174.288C237.176 160.314 231.136 152.804 226.302 149.028Z" fill="#85E211"/>
<path d="M212.984 215.975C212.112 215.975 211.25 215.788 210.456 215.425L203.845 212.368C203.741 212.331 203.647 212.273 203.567 212.198C203.487 212.122 203.424 212.031 203.381 211.93C203.338 211.829 203.317 211.72 203.319 211.61C203.32 211.5 203.345 211.392 203.39 211.292C203.436 211.192 203.501 211.103 203.583 211.029C203.665 210.956 203.761 210.901 203.866 210.867C203.97 210.833 204.081 210.821 204.19 210.831C204.299 210.842 204.405 210.876 204.501 210.929L211.112 213.986C211.955 214.379 212.9 214.498 213.814 214.327C214.728 214.156 215.566 213.704 216.21 213.034L222.557 206.476C222.706 206.328 222.907 206.244 223.118 206.244C223.328 206.244 223.53 206.328 223.678 206.476C223.824 206.626 223.906 206.827 223.906 207.037C223.906 207.246 223.824 207.447 223.678 207.597L217.332 214.156C216.767 214.736 216.09 215.196 215.343 215.509C214.596 215.821 213.794 215.98 212.984 215.975Z" fill="#85E211"/>
<path opacity="0.5" d="M212.984 215.975C212.112 215.975 211.25 215.788 210.456 215.425L203.845 212.368C203.741 212.331 203.647 212.273 203.567 212.198C203.487 212.122 203.424 212.031 203.381 211.93C203.338 211.829 203.317 211.72 203.319 211.61C203.32 211.5 203.345 211.392 203.39 211.292C203.436 211.192 203.501 211.103 203.583 211.029C203.665 210.956 203.761 210.901 203.866 210.867C203.97 210.833 204.081 210.821 204.19 210.831C204.299 210.842 204.405 210.876 204.501 210.929L211.112 213.986C211.955 214.379 212.9 214.498 213.814 214.327C214.728 214.156 215.566 213.704 216.21 213.034L222.557 206.476C222.706 206.328 222.907 206.244 223.118 206.244C223.328 206.244 223.53 206.328 223.678 206.476C223.824 206.626 223.906 206.827 223.906 207.037C223.906 207.246 223.824 207.447 223.678 207.597L217.332 214.156C216.767 214.736 216.09 215.196 215.343 215.509C214.596 215.821 213.794 215.98 212.984 215.975Z" fill="black"/>
<path d="M205.58 210.146C205.58 210.757 205.399 211.354 205.059 211.862C204.72 212.37 204.238 212.766 203.673 213C203.109 213.234 202.488 213.295 201.889 213.176C201.29 213.057 200.739 212.762 200.307 212.33C199.875 211.898 199.581 211.348 199.462 210.749C199.343 210.15 199.404 209.529 199.638 208.964C199.871 208.4 200.267 207.918 200.775 207.578C201.283 207.239 201.88 207.058 202.491 207.058C203.31 207.058 204.096 207.383 204.675 207.962C205.255 208.542 205.58 209.327 205.58 210.146Z" fill="#85E211"/>
<path opacity="0.5" d="M205.58 210.146C205.58 210.757 205.399 211.354 205.059 211.862C204.72 212.37 204.238 212.766 203.673 213C203.109 213.234 202.488 213.295 201.889 213.176C201.29 213.057 200.739 212.762 200.307 212.33C199.875 211.898 199.581 211.348 199.462 210.749C199.343 210.15 199.404 209.529 199.638 208.964C199.871 208.4 200.267 207.918 200.775 207.578C201.283 207.239 201.88 207.058 202.491 207.058C203.31 207.058 204.096 207.383 204.675 207.962C205.255 208.542 205.58 209.327 205.58 210.146Z" fill="black"/>
<path d="M237.176 174.288V182.01C237.19 182.646 236.968 183.265 236.555 183.749C236.141 184.233 235.564 184.547 234.933 184.633C234.585 184.67 234.233 184.633 233.899 184.525C233.566 184.417 233.259 184.24 232.999 184.006C232.738 183.771 232.53 183.485 232.388 183.164C232.245 182.844 232.172 182.498 232.173 182.147V174.288C232.179 170.537 231.426 166.824 229.959 163.371C228.493 159.919 226.343 156.799 223.639 154.199C220.935 151.599 217.734 149.573 214.227 148.242C210.72 146.912 206.98 146.305 203.232 146.458C207.04 145.712 210.913 145.358 214.793 145.4H215.714C219.545 145.439 223.259 146.728 226.291 149.07C231.136 152.804 237.176 160.315 237.176 174.288Z" fill="#85E211"/>
<path opacity="0.5" d="M237.176 174.288V182.01C237.19 182.646 236.968 183.265 236.555 183.749C236.141 184.233 235.564 184.547 234.933 184.633C234.585 184.67 234.233 184.633 233.899 184.525C233.566 184.417 233.259 184.24 232.999 184.006C232.738 183.771 232.53 183.485 232.388 183.164C232.245 182.844 232.172 182.498 232.173 182.147V174.288C232.179 170.537 231.426 166.824 229.959 163.371C228.493 159.919 226.343 156.799 223.639 154.199C220.935 151.599 217.734 149.573 214.227 148.242C210.72 146.912 206.98 146.305 203.232 146.458C207.04 145.712 210.913 145.358 214.793 145.4H215.714C219.545 145.439 223.259 146.728 226.291 149.07C231.136 152.804 237.176 160.315 237.176 174.288Z" fill="black"/>
<path d="M225.286 319.807C225.286 319.807 220.167 333.908 238.466 340.254C238.466 340.254 244.443 331.475 238.466 324.292C232.49 317.11 225.286 319.807 225.286 319.807Z" fill="#85E211"/>
<path opacity="0.7" d="M225.286 319.807C225.286 319.807 220.167 333.908 238.466 340.254C238.466 340.254 244.443 331.475 238.466 324.292C232.49 317.11 225.286 319.807 225.286 319.807Z" fill="black"/>
<path d="M231.707 320.452C231.707 320.452 213.831 327 213.926 329.539C214.021 332.077 221.521 330.342 221.521 330.342L218.781 332.141C215.896 334.023 213.662 336.749 212.382 339.947C212.103 340.652 212.093 341.436 212.354 342.148C212.616 342.86 213.13 343.451 213.799 343.808L220.59 347.404C220.973 347.608 221.394 347.732 221.826 347.771C222.259 347.809 222.694 347.76 223.108 347.627C223.521 347.493 223.903 347.279 224.232 346.995C224.561 346.712 224.83 346.366 225.022 345.976C225.401 345.229 225.924 344.563 226.561 344.018C227.198 343.474 227.937 343.061 228.735 342.803C232.427 341.576 239.313 338.043 242.074 328.375L231.707 320.452Z" fill="#945959"/>
<path d="M237.07 229.62C237.07 229.62 227.55 234.909 232.606 250.966C237.663 267.023 247.151 291.934 247.151 291.934L225.287 319.807C227.623 320.088 229.873 320.86 231.89 322.07C233.908 323.28 235.648 324.902 236.996 326.83C238.288 328.791 239.095 331.031 239.35 333.365C239.606 335.699 239.303 338.06 238.467 340.254L265.609 305.347C268.119 302.121 269.786 298.32 270.458 294.289C271.13 290.257 270.787 286.121 269.46 282.255L257.824 248.279C256.402 244.129 254.038 240.364 250.919 237.279C247.799 234.195 244.008 231.874 239.842 230.498L237.07 229.62Z" fill="#85E211"/>
<path d="M76.3719 134.768L34.3039 110.439C33.8197 110.104 33.2596 109.894 32.6742 109.83C32.0887 109.765 31.4963 109.847 30.9507 110.069C30.8357 110.122 30.7259 110.186 30.6228 110.259L21.473 115.622H21.5364C20.3834 116.278 19.6536 117.801 19.6536 119.98V166.777C19.6536 170.733 22.0547 175.334 25.0271 177.048L67.0951 201.377C67.6289 201.763 68.2643 201.984 68.9224 202.012C69.5806 202.04 70.2325 201.875 70.7974 201.536C70.7688 201.547 70.7434 201.565 70.7233 201.588L79.8097 196.3C80.9944 195.665 81.7454 194.12 81.7454 191.91V145.039C81.7454 141.083 79.3866 136.482 76.3719 134.768Z" fill="#85E211"/>
<path d="M80.2436 139.2C79.3925 137.39 78.0513 135.855 76.3721 134.768L34.3041 110.439C33.8199 110.104 33.2598 109.894 32.6744 109.83C32.0889 109.765 31.4965 109.847 30.9509 110.069C30.8359 110.122 30.7261 110.186 30.623 110.259L21.4731 115.622C22.0328 115.336 22.6604 115.21 23.2873 115.256C23.9141 115.303 24.5161 115.521 25.0273 115.887L67.0953 140.216C68.8317 141.351 70.2078 142.958 71.062 144.849L80.2436 139.2Z" fill="#85E211"/>
<path d="M72.4687 197.262C72.4687 199.377 71.7917 200.848 70.7234 201.493L79.8097 196.204C80.9945 195.569 81.7455 194.025 81.7455 191.814V145.039C81.7008 143.003 81.1867 141.005 80.2434 139.2L71.0619 144.849C71.9434 146.6 72.424 148.526 72.4687 150.487V197.262Z" fill="#85E211"/>
<path opacity="0.3" d="M80.2436 139.2C79.3925 137.39 78.0513 135.855 76.3721 134.768L34.3041 110.439C33.8199 110.104 33.2598 109.894 32.6744 109.83C32.0889 109.765 31.4965 109.847 30.9509 110.069C30.8359 110.122 30.7261 110.186 30.623 110.259L21.4731 115.622C22.0328 115.336 22.6604 115.21 23.2873 115.256C23.9141 115.303 24.5161 115.521 25.0273 115.887L67.0953 140.216C68.8317 141.351 70.2078 142.958 71.062 144.849L80.2436 139.2Z" fill="black"/>
<path opacity="0.6" d="M72.4687 197.262C72.4687 199.377 71.7917 200.848 70.7234 201.493L79.8097 196.204C80.9945 195.569 81.7455 194.025 81.7455 191.814V145.039C81.7008 143.003 81.1867 141.005 80.2434 139.2L71.0619 144.849C71.9434 146.6 72.424 148.526 72.4687 150.487V197.262Z" fill="black"/>
<path d="M60.135 163.889C60.135 169.95 57.7338 172.013 54.1374 169.929C53.1453 169.364 52.2777 168.604 51.5869 167.695C50.8961 166.786 50.3964 165.747 50.1178 164.64C49.06 165.941 47.4205 166.026 45.1145 164.693C41.3276 162.503 38.3447 157.288 38.3447 152.222C38.3447 147.155 41.2959 145.409 45.1145 147.61C47.0522 148.752 48.6174 150.431 49.6206 152.444V150.444L53.6085 152.75V163.709C53.5491 164.286 53.6488 164.868 53.8969 165.392C54.1449 165.916 54.5317 166.362 55.0153 166.681C56.3587 167.464 57.1838 166.142 57.1838 162.218C57.1838 155.353 52.7834 148.075 46.278 144.32C39.7727 140.565 35.3829 143.178 35.3829 150.243C35.4681 153.993 36.5013 157.66 38.386 160.902C40.2708 164.144 42.9458 166.857 46.1617 168.786C47.9078 169.862 49.8907 170.494 51.9372 170.627L52.8786 174.276C50.4957 174.084 48.193 173.326 46.1617 172.066C37.6994 167.168 32.1038 157.309 32.1038 148.382C32.1038 139.454 37.7523 136.217 46.278 141.147C54.5182 145.896 60.135 155.405 60.135 163.889ZM49.6841 158.801C49.7047 157.46 49.3774 156.136 48.7341 154.959C48.0909 153.782 47.1536 152.791 46.0136 152.084C43.898 150.846 42.3854 151.714 42.3854 154.591C42.3582 155.934 42.6778 157.262 43.3133 158.446C43.9489 159.63 44.8789 160.63 46.0136 161.35C48.1292 162.546 49.6841 161.773 49.6841 158.801Z" fill="#85E211"/>
<g opacity="0.9">
<path d="M60.135 163.889C60.135 169.95 57.7338 172.013 54.1374 169.929C53.1453 169.364 52.2777 168.604 51.5869 167.695C50.8961 166.786 50.3964 165.747 50.1178 164.64C49.06 165.941 47.4205 166.026 45.1145 164.693C41.3276 162.503 38.3447 157.288 38.3447 152.222C38.3447 147.155 41.2959 145.409 45.1145 147.61C47.0522 148.752 48.6174 150.431 49.6206 152.444V150.444L53.6085 152.75V163.709C53.5491 164.286 53.6488 164.868 53.8969 165.392C54.1449 165.916 54.5317 166.362 55.0153 166.681C56.3587 167.464 57.1838 166.142 57.1838 162.218C57.1838 155.353 52.7834 148.075 46.278 144.32C39.7727 140.565 35.3829 143.178 35.3829 150.243C35.4681 153.993 36.5013 157.66 38.386 160.902C40.2708 164.144 42.9458 166.857 46.1617 168.786C47.9078 169.862 49.8907 170.494 51.9372 170.627L52.8786 174.276C50.4957 174.084 48.193 173.326 46.1617 172.066C37.6994 167.168 32.1038 157.309 32.1038 148.382C32.1038 139.454 37.7523 136.217 46.278 141.147C54.5182 145.896 60.135 155.405 60.135 163.889ZM49.6841 158.801C49.7047 157.46 49.3774 156.136 48.7341 154.959C48.0909 153.782 47.1536 152.791 46.0136 152.084C43.898 150.846 42.3854 151.714 42.3854 154.591C42.3582 155.934 42.6778 157.262 43.3133 158.446C43.9489 159.63 44.8789 160.63 46.0136 161.35C48.1292 162.546 49.6841 161.773 49.6841 158.801Z" fill="white"/>
</g>
<path d="M76.3719 218.101L34.3039 193.772C33.8204 193.434 33.2596 193.224 32.6734 193.162C32.0872 193.099 31.4947 193.185 30.9507 193.412C30.8357 193.465 30.7259 193.529 30.6228 193.602L21.473 198.965H21.5364C20.3834 199.621 19.6536 201.144 19.6536 203.313V250.088C19.6536 254.055 22.0547 258.646 25.0271 260.359L67.0951 284.688C67.6278 285.077 68.2635 285.299 68.9223 285.327C69.581 285.356 70.2334 285.188 70.7974 284.847L70.7233 284.91L79.8097 279.568C80.9944 278.944 81.7454 277.453 81.7454 275.179V228.361C81.7454 224.405 79.3866 219.814 76.3719 218.101Z" fill="#85E211"/>
<path d="M80.2436 222.533C79.3954 220.721 78.0536 219.185 76.3721 218.101L34.3041 193.772C33.8206 193.434 33.2598 193.224 32.6736 193.162C32.0874 193.099 31.4949 193.185 30.9509 193.412C30.8359 193.465 30.7261 193.529 30.623 193.602L21.4731 198.965C22.0316 198.677 22.6589 198.548 23.2859 198.592C23.913 198.637 24.5156 198.854 25.0273 199.219L67.0953 223.548C68.8344 224.685 70.211 226.297 71.062 228.192L80.2436 222.533Z" fill="#85E211"/>
<path d="M72.4687 280.584C72.4687 282.699 71.7917 284.17 70.7234 284.868L79.8097 279.526C80.9945 278.902 81.7455 277.41 81.7455 275.136V228.361C81.7007 226.329 81.1866 224.334 80.2434 222.533L71.0619 228.181C71.9432 229.929 72.4239 231.852 72.4687 233.809V280.584Z" fill="#85E211"/>
<path opacity="0.3" d="M80.2436 222.533C79.3954 220.721 78.0536 219.185 76.3721 218.101L34.3041 193.772C33.8206 193.434 33.2598 193.224 32.6736 193.162C32.0874 193.099 31.4949 193.185 30.9509 193.412C30.8359 193.465 30.7261 193.529 30.623 193.602L21.4731 198.965C22.0316 198.677 22.6589 198.548 23.2859 198.592C23.913 198.637 24.5156 198.854 25.0273 199.219L67.0953 223.548C68.8344 224.685 70.211 226.297 71.062 228.192L80.2436 222.533Z" fill="black"/>
<path opacity="0.6" d="M72.4687 280.584C72.4687 282.699 71.7917 284.17 70.7234 284.868L79.8097 279.526C80.9945 278.902 81.7455 277.41 81.7455 275.136V228.361C81.7007 226.329 81.1866 224.334 80.2434 222.533L71.0619 228.181C71.9432 229.929 72.4239 231.852 72.4687 233.809V280.584Z" fill="black"/>
<path d="M41.3595 239.013L31.2153 222.533V244.863L41.3595 239.013Z" fill="#85E211"/>
<path d="M50.7839 243.762L60.9069 261.29V238.992L50.7839 243.762Z" fill="#85E211"/>
<path d="M32.749 221.782L43.1682 238.706C43.2123 238.743 43.2514 238.786 43.2845 238.833C43.2937 238.875 43.2937 238.918 43.2845 238.96L46.3838 243.995L49.0071 242.758C49.048 242.713 49.0942 242.674 49.1447 242.641C49.2481 242.581 49.3638 242.545 49.4832 242.535L60.061 237.574L32.749 221.782Z" fill="#85E211"/>
<path d="M49.2505 244.481L46.4156 245.814C46.3064 245.865 46.187 245.89 46.0666 245.888C45.9206 245.89 45.7766 245.854 45.6487 245.783C45.5208 245.713 45.4133 245.611 45.3367 245.486L42.2374 240.451L32.0615 246.332L59.4475 262.136L49.2505 244.481Z" fill="#85E211"/>
<g opacity="0.9">
<path d="M41.3595 239.013L31.2153 222.533V244.863L41.3595 239.013Z" fill="white"/>
<path d="M50.7839 243.762L60.9069 261.29V238.992L50.7839 243.762Z" fill="white"/>
<path d="M32.749 221.782L43.1682 238.706C43.2123 238.743 43.2514 238.786 43.2845 238.833C43.2937 238.875 43.2937 238.918 43.2845 238.96L46.3838 243.995L49.0071 242.758C49.048 242.713 49.0942 242.674 49.1447 242.641C49.2481 242.581 49.3638 242.545 49.4832 242.535L60.061 237.574L32.749 221.782Z" fill="white"/>
<path d="M49.2505 244.481L46.4156 245.814C46.3064 245.865 46.187 245.89 46.0666 245.888C45.9206 245.89 45.7766 245.854 45.6487 245.783C45.5208 245.713 45.4133 245.611 45.3367 245.486L42.2374 240.451L32.0615 246.332L59.4475 262.136L49.2505 244.481Z" fill="white"/>
</g>
<path d="M76.3719 51.4782L34.3039 27.1491C33.8204 26.8117 33.2596 26.6019 32.6734 26.539C32.0872 26.4761 31.4947 26.5623 30.9507 26.7895C30.8357 26.8426 30.7259 26.9064 30.6228 26.9799L21.473 32.3429H21.5364C20.3834 32.9881 19.6536 34.5219 19.6536 36.6903V83.4655C19.6536 87.4216 22.0547 92.023 25.0271 93.7366L67.0951 118.066C67.6278 118.454 68.2635 118.677 68.9223 118.705C69.581 118.733 70.2334 118.566 70.7974 118.224L70.7233 118.277L79.8097 112.988C80.9944 112.364 81.7454 110.873 81.7454 108.598V61.7069C81.7454 57.7508 79.3866 53.1495 76.3719 51.4782Z" fill="#85E211"/>
<path d="M80.2436 55.8785C79.3956 54.0637 78.0539 52.5241 76.3721 51.4358L34.3041 27.1491C33.8206 26.8117 33.2598 26.6019 32.6736 26.539C32.0874 26.4761 31.4949 26.5623 30.9509 26.7895C30.8359 26.8426 30.7261 26.9064 30.623 26.9799L21.4731 32.3429C22.0316 32.0541 22.6589 31.925 23.2859 31.9698C23.913 32.0146 24.5156 32.2315 25.0273 32.5967L67.0953 56.9257C68.8344 58.0625 70.211 59.6741 71.062 61.5694L80.2436 55.8785Z" fill="#85E211"/>
<path d="M72.4687 113.888C72.4687 116.003 71.7917 117.474 70.7234 118.119L79.8097 112.83C80.9945 112.206 81.7455 110.714 81.7455 108.44V61.7073C81.7007 59.6747 81.1866 57.68 80.2434 55.8789L71.0619 61.5275C71.9432 63.2754 72.4239 65.1978 72.4687 67.1549V113.888Z" fill="#85E211"/>
<path opacity="0.3" d="M80.2436 55.8785C79.3956 54.0637 78.0539 52.5241 76.3721 51.4358L34.3041 27.1491C33.8206 26.8117 33.2598 26.6019 32.6736 26.539C32.0874 26.4761 31.4949 26.5623 30.9509 26.7895C30.8359 26.8426 30.7261 26.9064 30.623 26.9799L21.4731 32.3429C22.0316 32.0541 22.6589 31.925 23.2859 31.9698C23.913 32.0146 24.5156 32.2315 25.0273 32.5967L67.0953 56.9257C68.8344 58.0625 70.211 59.6741 71.062 61.5694L80.2436 55.8785Z" fill="black"/>
<path opacity="0.6" d="M72.4687 113.888C72.4687 116.003 71.7917 117.474 70.7234 118.119L79.8097 112.83C80.9945 112.206 81.7455 110.714 81.7455 108.44V61.7073C81.7007 59.6747 81.1866 57.68 80.2434 55.8789L71.0619 61.5275C71.9432 63.2754 72.4239 65.1978 72.4687 67.1549V113.888Z" fill="black"/>
<path d="M58.7067 93.7897C57.0883 91.1241 55.4593 88.5008 53.8409 85.814C53.5842 85.3051 53.2254 84.8546 52.7868 84.4906C52.3481 84.1266 51.8392 83.8569 51.2917 83.6984C50.5089 83.5398 49.7262 83.36 48.9222 83.1272C48.6359 83.0079 48.3951 82.8004 48.2347 82.5349C45.5864 78.0024 43.481 73.1739 41.962 68.149C41.9297 68.0416 41.9206 67.9286 41.9351 67.8173C41.9497 67.7061 41.9877 67.5992 42.0467 67.5038C42.5438 67.0066 43.1044 66.5518 43.6122 66.1075C44.1199 65.6632 44.3844 64.6372 44.0141 63.3044C43.2314 60.4801 42.4804 57.6558 41.6976 54.8421C41.5461 54.0427 41.1868 53.2972 40.6557 52.6807C40.1246 52.0642 39.4406 51.5984 38.6723 51.3303C36.9665 50.856 35.1556 50.9226 33.4892 51.5207C32.8439 51.764 32.5055 52.3458 32.4949 53.3506C32.7699 55.2864 32.9497 57.201 33.3199 59.1685C35.9291 73.3569 42.2053 86.4028 52.1485 98.3064C52.4081 98.7012 52.7568 99.0294 53.1665 99.2645C53.5763 99.4997 54.0356 99.6353 54.5073 99.6604C56.1535 99.6213 57.735 99.0118 58.9818 97.9362C59.9232 97.09 59.828 95.5879 58.7067 93.7897Z" fill="#85E211"/>
<path d="M58.5799 79.3725C58.3586 76.3299 57.5201 73.3643 56.1153 70.6564C55.0665 68.5409 53.7317 66.5798 52.1486 64.828C51.7361 64.3626 51.387 64.2145 51.1754 64.5635C50.9639 64.9126 51.1754 65.4098 51.5774 65.8646L51.9899 66.3406C54.9136 69.7155 56.7562 73.8908 57.2789 78.3253C57.2737 78.6487 57.3056 78.9717 57.3741 79.2879C57.5069 79.6517 57.7203 79.9807 57.9981 80.2505C58.2203 80.4091 58.4742 80.2505 58.654 80.2505C58.5905 79.8168 58.6011 79.5946 58.5799 79.3725Z" fill="#85E211"/>
<path d="M48.9967 70.6878C50.3251 72.1488 51.1322 74.0086 51.2921 75.9767C51.3618 76.2759 51.4721 76.5642 51.62 76.8335C52.2653 77.3624 52.5826 77.1826 52.5826 76.5161C52.3565 73.9927 51.3128 71.612 49.6103 69.7358C49.2083 69.3232 48.8804 69.1963 48.69 69.5454C48.6215 69.7447 48.6141 69.9599 48.6688 70.1634C48.7234 70.367 48.8376 70.5496 48.9967 70.6878Z" fill="#85E211"/>
<g opacity="0.9">
<path d="M58.7067 93.7897C57.0883 91.1241 55.4593 88.5008 53.8409 85.814C53.5842 85.3051 53.2254 84.8546 52.7868 84.4906C52.3481 84.1266 51.8392 83.8569 51.2917 83.6984C50.5089 83.5398 49.7262 83.36 48.9222 83.1272C48.6359 83.0079 48.3951 82.8004 48.2347 82.5349C45.5864 78.0024 43.481 73.1739 41.962 68.149C41.9297 68.0416 41.9206 67.9286 41.9351 67.8173C41.9497 67.7061 41.9877 67.5992 42.0467 67.5038C42.5438 67.0066 43.1044 66.5518 43.6122 66.1075C44.1199 65.6632 44.3844 64.6372 44.0141 63.3044C43.2314 60.4801 42.4804 57.6558 41.6976 54.8421C41.5461 54.0427 41.1868 53.2972 40.6557 52.6807C40.1246 52.0642 39.4406 51.5984 38.6723 51.3303C36.9665 50.856 35.1556 50.9226 33.4892 51.5207C32.8439 51.764 32.5055 52.3458 32.4949 53.3506C32.7699 55.2864 32.9497 57.201 33.3199 59.1685C35.9291 73.3569 42.2053 86.4028 52.1485 98.3064C52.4081 98.7012 52.7568 99.0294 53.1665 99.2645C53.5763 99.4997 54.0356 99.6353 54.5073 99.6604C56.1535 99.6213 57.735 99.0118 58.9818 97.9362C59.9232 97.09 59.828 95.5879 58.7067 93.7897Z" fill="white"/>
<path d="M58.5797 79.3725C58.3584 76.3299 57.5198 73.3643 56.115 70.6564C55.0662 68.5409 53.7315 66.5798 52.1484 64.828C51.7358 64.3626 51.3868 64.2145 51.1752 64.5635C50.9636 64.9126 51.1752 65.4098 51.5772 65.8646L51.9897 66.3406C54.9134 69.7155 56.756 73.8908 57.2786 78.3253C57.2734 78.6487 57.3054 78.9717 57.3738 79.2879C57.5067 79.6517 57.72 79.9807 57.9979 80.2505C58.22 80.4091 58.4739 80.2505 58.6537 80.2505C58.5903 79.8168 58.6008 79.5946 58.5797 79.3725Z" fill="white"/>
<path d="M48.9963 70.6878C50.3246 72.1488 51.1317 74.0086 51.2916 75.9767C51.3613 76.2759 51.4716 76.5642 51.6196 76.8335C52.2648 77.3624 52.5821 77.1826 52.5821 76.5161C52.356 73.9927 51.3123 71.612 49.6098 69.7358C49.2078 69.3232 48.8799 69.1963 48.6895 69.5454C48.621 69.7447 48.6136 69.9599 48.6683 70.1634C48.7229 70.367 48.8371 70.5496 48.9963 70.6878Z" fill="white"/>
</g>
<path d="M292.212 23.4258L302.124 29.0638V25.552C302.124 25.3087 302.124 25.0548 302.124 24.8115C302.124 24.5682 302.124 24.3355 302.124 24.1028V23.9759C302.483 19.3322 306.006 17.5446 310.3 20.0303C312.245 21.2262 313.911 22.8239 315.187 24.7163C316.15 18.3696 321.301 16.1271 327.532 19.713C334.45 23.7114 340.056 33.4642 340.056 41.4187V48.929C340.046 49.5297 340.194 50.1225 340.486 50.6479C340.777 51.1733 341.202 51.6129 341.717 51.9225L347.556 55.3391C348.816 56.0863 349.86 57.1478 350.587 58.4197C351.314 59.6917 351.698 61.1306 351.702 62.5955C351.702 63.2033 351.542 63.8004 351.238 64.3267C350.934 64.853 350.497 65.2899 349.97 65.5934C349.444 65.8969 348.847 66.0563 348.239 66.0555C347.631 66.0548 347.034 65.8939 346.508 65.5891L292.36 34.2893C290.924 33.455 289.731 32.2594 288.9 30.8213C288.068 29.3832 287.628 27.7526 287.622 26.0914C287.621 25.5538 287.762 25.0254 288.03 24.5593C288.298 24.0932 288.684 23.7057 289.149 23.4357C289.614 23.1657 290.142 23.0227 290.679 23.0209C291.217 23.0192 291.746 23.1588 292.212 23.4258Z" fill="#E6E6E6"/>
<path d="M367.77 21.9552L374.973 26.0912V23.5102C374.973 23.3303 374.973 23.1505 374.973 22.9707C374.973 22.7909 374.973 22.6216 374.973 22.4524V22.3889C375.238 19.0146 377.798 17.7135 380.918 19.5223C382.331 20.3881 383.543 21.5458 384.472 22.9178C385.181 18.327 388.925 16.6663 393.453 19.279C398.488 22.1879 402.56 29.2539 402.56 35.0612V40.5299C402.564 40.9586 402.679 41.379 402.894 41.7498C403.109 42.1207 403.417 42.4293 403.787 42.6455L408.018 45.1312C408.939 45.6727 409.702 46.4459 410.231 47.3738C410.76 48.3018 411.036 49.3521 411.033 50.4202C411.032 50.8576 410.918 51.2874 410.7 51.667C410.483 52.0467 410.171 52.3631 409.794 52.5852C409.417 52.8073 408.988 52.9273 408.551 52.9335C408.114 52.9397 407.682 52.8317 407.299 52.6204L367.876 29.8569C366.831 29.2525 365.963 28.3842 365.36 27.339C364.757 26.2938 364.439 25.1084 364.438 23.9015C364.437 23.5109 364.539 23.127 364.733 22.788C364.927 22.4491 365.207 22.167 365.544 21.97C365.881 21.773 366.264 21.6679 366.655 21.6653C367.045 21.6627 367.43 21.7627 367.77 21.9552Z" fill="#E6E6E6"/>
</svg>
