<svg width="56" height="62" viewBox="0 0 56 62" fill="none" xmlns="http://www.w3.org/2000/svg">
<g filter="url(#filter0_d_2143_6526)">
<g clip-path="url(#clip0_2143_6526)">
<rect x="20" y="16" width="22" height="22" rx="11" fill="#85E211"/>
<path d="M31 33H37.75M34.375 20.625C34.6734 20.3266 35.078 20.159 35.5 20.159C35.7089 20.159 35.9158 20.2001 36.1088 20.2801C36.3019 20.3601 36.4773 20.4772 36.625 20.625C36.7727 20.7727 36.8899 20.9481 36.9699 21.1411C37.0498 21.3342 37.091 21.5411 37.091 21.75C37.091 21.9589 37.0498 22.1658 36.9699 22.3588C36.8899 22.5519 36.7727 22.7272 36.625 22.875L27.25 32.25L24.25 33L25 30L34.375 20.625Z" stroke="white" stroke-width="1.5" stroke-linecap="round" stroke-linejoin="round"/>
<g style="mix-blend-mode:color-dodge" opacity="0.39" filter="url(#filter1_f_2143_6526)">
<path d="M39.829 23.3955C39.829 23.3955 70.4374 25.4918 109.568 12.3891C148.698 -0.713507 -53.5918 7.10562 -53.5918 7.10562C-53.5918 7.10562 -20.6066 15.4736 -0.76049 19.965C12.2068 22.8997 39.829 23.3955 39.829 23.3955Z" fill="white"/>
</g>
</g>
</g>
<defs>
<filter id="filter0_d_2143_6526" x="0.400002" y="0.400002" width="61.2" height="61.2" filterUnits="userSpaceOnUse" color-interpolation-filters="sRGB">
<feFlood flood-opacity="0" result="BackgroundImageFix"/>
<feColorMatrix in="SourceAlpha" type="matrix" values="0 0 0 0 0 0 0 0 0 0 0 0 0 0 0 0 0 0 127 0" result="hardAlpha"/>
<feMorphology radius="17" operator="erode" in="SourceAlpha" result="effect1_dropShadow_2143_6526"/>
<feOffset dy="4"/>
<feGaussianBlur stdDeviation="18.3"/>
<feComposite in2="hardAlpha" operator="out"/>
<feColorMatrix type="matrix" values="0 0 0 0 0.513726 0 0 0 0 0.129412 0 0 0 0 0.74902 0 0 0 0.38 0"/>
<feBlend mode="normal" in2="BackgroundImageFix" result="effect1_dropShadow_2143_6526"/>
<feBlend mode="normal" in="SourceGraphic" in2="effect1_dropShadow_2143_6526" result="shape"/>
</filter>
<filter id="filter1_f_2143_6526" x="-68.7918" y="-10.4093" width="198.584" height="49.128" filterUnits="userSpaceOnUse" color-interpolation-filters="sRGB">
<feFlood flood-opacity="0" result="BackgroundImageFix"/>
<feBlend mode="normal" in="SourceGraphic" in2="BackgroundImageFix" result="shape"/>
<feGaussianBlur stdDeviation="7.6" result="effect1_foregroundBlur_2143_6526"/>
</filter>
<clipPath id="clip0_2143_6526">
<rect x="20" y="16" width="22" height="22" rx="11" fill="white"/>
</clipPath>
</defs>
</svg>
