<svg width="36" height="21" viewBox="0 0 36 21" fill="none" xmlns="http://www.w3.org/2000/svg">
<g clip-path="url(#clip0_2288_6283)">
<path d="M0 10.5C0 4.97715 4.47715 0.5 10 0.5H26C31.5228 0.5 36 4.97715 36 10.5C36 16.0228 31.5228 20.5 26 20.5H10C4.47715 20.5 0 16.0228 0 10.5Z" fill="#F7F7F8"/>
<g filter="url(#filter0_dd_2288_6283)">
<path d="M2 10.5C2 6.08172 5.58172 2.5 10 2.5C14.4183 2.5 18 6.08172 18 10.5C18 14.9183 14.4183 18.5 10 18.5C5.58172 18.5 2 14.9183 2 10.5Z" fill="white"/>
</g>
</g>
<path d="M0.25 10.5C0.25 5.11522 4.61522 0.75 10 0.75H26C31.3848 0.75 35.75 5.11522 35.75 10.5C35.75 15.8848 31.3848 20.25 26 20.25H10C4.61522 20.25 0.25 15.8848 0.25 10.5Z" stroke="black" stroke-opacity="0.5" stroke-width="0.5"/>
<defs>
<filter id="filter0_dd_2288_6283" x="-1" y="0.5" width="22" height="22" filterUnits="userSpaceOnUse" color-interpolation-filters="sRGB">
<feFlood flood-opacity="0" result="BackgroundImageFix"/>
<feColorMatrix in="SourceAlpha" type="matrix" values="0 0 0 0 0 0 0 0 0 0 0 0 0 0 0 0 0 0 127 0" result="hardAlpha"/>
<feOffset dy="1"/>
<feGaussianBlur stdDeviation="1"/>
<feComposite in2="hardAlpha" operator="out"/>
<feColorMatrix type="matrix" values="0 0 0 0 0.0627451 0 0 0 0 0.0941176 0 0 0 0 0.156863 0 0 0 0.06 0"/>
<feBlend mode="normal" in2="BackgroundImageFix" result="effect1_dropShadow_2288_6283"/>
<feColorMatrix in="SourceAlpha" type="matrix" values="0 0 0 0 0 0 0 0 0 0 0 0 0 0 0 0 0 0 127 0" result="hardAlpha"/>
<feOffset dy="1"/>
<feGaussianBlur stdDeviation="1.5"/>
<feComposite in2="hardAlpha" operator="out"/>
<feColorMatrix type="matrix" values="0 0 0 0 0.0627451 0 0 0 0 0.0941176 0 0 0 0 0.156863 0 0 0 0.1 0"/>
<feBlend mode="normal" in2="effect1_dropShadow_2288_6283" result="effect2_dropShadow_2288_6283"/>
<feBlend mode="normal" in="SourceGraphic" in2="effect2_dropShadow_2288_6283" result="shape"/>
</filter>
<clipPath id="clip0_2288_6283">
<path d="M0 10.5C0 4.97715 4.47715 0.5 10 0.5H26C31.5228 0.5 36 4.97715 36 10.5C36 16.0228 31.5228 20.5 26 20.5H10C4.47715 20.5 0 16.0228 0 10.5Z" fill="white"/>
</clipPath>
</defs>
</svg>
