<svg width="1168" height="223" viewBox="0 0 1168 223" fill="none" xmlns="http://www.w3.org/2000/svg">
<g clip-path="url(#clip0_2288_5302)">
<rect width="1168" height="223" rx="15" fill="#85E211"/>
<g opacity="0.5">
<path d="M340.052 544.309C392.827 551.428 447.9 540.732 494.043 514.196C548.928 482.687 589.35 431.276 624.69 378.772C660.029 326.268 692.291 270.876 736.759 225.937C781.325 180.981 841.173 146.621 904.391 149.165C944.046 150.778 982.376 166.671 1022.08 166.344C1147.68 165.28 1232.21 8.69197 1357.79 11.9029C1411.43 13.2681 1460.18 44.8264 1513.58 50.9149C1583.41 58.9477 1656.11 17.6348 1685.02 -46.4951" stroke="#62A8B2" stroke-width="2" stroke-miterlimit="10"/>
<path d="M334.248 536.026C378.561 539.728 425.228 532.519 467.17 515.709C475.416 512.455 483.472 508.727 491.277 504.741C523.408 488.221 550.872 466.259 574.974 442.071C593.423 423.607 610.008 403.861 625.956 383.419C635.328 371.414 644.646 359.114 654.205 346.464C675.967 317.32 697.623 285.957 720.933 256.933C727.624 248.576 734.469 240.497 741.466 232.694C759.009 213.177 778.703 195.398 800.054 181.075C830.278 160.84 863.894 147.401 899.74 146.567C937.921 145.708 975.742 158.847 1015.61 157.777C1021.58 157.589 1027.39 157.124 1033.17 156.462C1070.56 151.884 1104.5 136.351 1137.47 116.117C1190.07 83.8099 1239.81 39.3206 1295.12 18.4093C1314.14 11.2314 1333.77 6.88687 1354.59 6.6979C1396.02 6.35634 1434.63 23.2144 1474.88 33.5649C1486.72 36.5607 1498.79 39.1087 1511.01 40.3056C1581.43 47.7194 1654.62 10.1795 1684.31 -47.5844" stroke="#69A3AE" stroke-width="2" stroke-miterlimit="10"/>
<path d="M328.463 527.842C373.082 529.351 420.605 521.272 463.651 505.479C472.129 502.385 480.357 499.033 488.413 495.305C521.407 480.151 549.915 460.538 574.698 439.479C593.566 423.276 610.463 406.32 627.241 388.165C637.065 377.5 646.914 366.424 657.208 354.452C680.612 327.037 703.438 294.848 726.332 264.68C732.871 256.047 739.446 247.61 746.254 239.334C763.025 218.943 781.303 200.104 801.121 184.641C829.327 162.847 860.486 147.117 894.992 143.988C931.582 140.576 969.127 151.122 1009.07 149.327C1015.01 149.041 1020.92 148.557 1026.78 147.779C1064.47 143.147 1098.79 129.679 1132.31 110.766C1185.84 80.7285 1236.65 36.5489 1292.08 14.5997C1311.04 7.12684 1330.78 2.25431 1351.47 1.37702C1392.74 -0.359378 1431.56 14.3246 1472.2 23.4843C1484.19 26.1488 1496.3 28.3835 1508.62 29.5622C1579.52 36.2769 1653.34 2.68843 1683.88 -48.826" stroke="#719DAA" stroke-width="2" stroke-miterlimit="10"/>
<path d="M322.679 519.658C367.586 518.877 416.001 510.124 460.248 495.329C468.96 492.395 477.438 489.301 485.666 485.949C519.603 472.044 549.174 454.878 574.52 436.867C593.825 423.025 611.115 408.742 628.508 392.812C638.685 383.506 649.262 373.617 660.193 362.34C685.141 336.674 709.332 303.623 731.615 272.348C738.001 263.437 744.387 254.527 750.845 246.01C766.826 224.647 783.706 204.846 802.089 188.225C828.162 164.792 856.743 145.572 890.128 141.329C925.301 136.856 962.296 143.335 1002.4 140.797C1008.33 140.412 1014.32 139.812 1020.2 139.133C1058.18 134.446 1092.88 123.043 1126.87 105.569C1181.33 77.7997 1233.14 34.0464 1288.88 11.023C1307.88 3.2369 1327.53 -2.12728 1348.19 -3.71109C1389.4 -6.86051 1428.33 5.66755 1469.27 13.6547C1481.29 16.0059 1493.56 18.0077 1505.96 19.0698C1577.46 25.1655 1651.78 -4.64992 1683.19 -49.8165" stroke="#7898A6" stroke-width="2" stroke-miterlimit="10"/>
<path d="M316.875 511.375C361.972 508.321 411.378 498.877 456.71 485C465.574 482.343 474.286 479.409 482.783 476.414C517.681 463.856 548.217 449.157 574.207 434.077C593.948 422.595 611.613 410.887 629.657 397.379C640.285 389.413 651.394 380.748 663.061 370.149C689.633 346.114 715.012 312.334 736.898 280.014C743.211 270.711 749.247 261.56 755.418 252.588C770.627 230.35 786.188 209.471 803.039 191.71C826.996 166.736 853.373 146.602 885.361 138.651C918.706 130.347 955.644 135.412 995.839 132.248C1001.85 131.747 1007.84 131.147 1013.7 130.369C1051.97 125.627 1087.06 116.289 1121.6 100.137C1176.96 74.5391 1229.76 31.2122 1285.72 7.13266C1304.76 -0.966608 1324.32 -6.82247 1344.85 -9.0946C1386.03 -13.5587 1425.05 -3.28497 1466.29 3.62787C1478.46 5.64778 1490.79 7.43467 1503.27 8.38032C1575.37 13.857 1650.3 -12.1053 1682.36 -50.986" stroke="#8092A2" stroke-width="2" stroke-miterlimit="10"/>
<path d="M311.09 503.191C356.475 497.847 406.853 487.612 453.208 474.868C462.306 472.371 471.269 469.696 480.035 467.058C515.895 455.848 547.475 443.498 574.029 431.467C594.207 422.344 612.166 413.327 631.04 402.107C642.12 395.481 653.742 387.941 666.162 378.118C694.278 355.832 720.942 321.306 742.395 287.743C748.555 278.163 754.42 268.637 760.224 259.326C774.562 236.233 788.806 214.276 804.123 195.374C825.946 168.761 849.903 146.532 880.612 136.072C912.385 125.313 948.93 127.705 989.293 123.798C995.284 123.198 1001.35 122.482 1007.33 121.784C1045.9 116.988 1081.35 109.617 1116.47 94.9836C1172.73 71.4577 1226.64 28.6371 1282.73 3.61803C1301.82 -4.79443 1321.29 -11.1419 1341.79 -14.1206C1382.9 -19.9977 1422.03 -11.8798 1463.67 -6.15779C1475.98 -4.46925 1488.37 -2.89724 1501.03 -2.08631C1573.63 2.78958 1649.15 -19.4179 1682.08 -51.9508" stroke="#878D9E" stroke-width="2" stroke-miterlimit="10"/>
<path d="M305.304 495.007C350.897 487.488 402.248 476.463 449.787 464.619C459.118 462.282 468.35 459.964 477.251 457.504C513.973 447.66 546.598 437.659 573.815 428.658C594.509 421.779 612.879 415.534 632.288 406.655C643.819 401.369 655.973 395.053 669.129 385.908C698.868 365.254 726.72 329.999 747.776 295.392C753.765 285.436 759.477 275.634 764.895 265.886C778.443 241.82 791.27 218.803 805.171 198.841C824.977 170.668 846.297 146.284 875.944 133.376C906.064 120.278 942.394 119.863 982.826 115.231C988.897 114.515 994.87 113.817 1000.92 113.002C1039.89 108.133 1075.62 102.845 1111.2 89.5523C1168.38 68.2954 1223.29 25.9011 1279.57 -0.272419C1298.58 -9.0782 1318.18 -15.8554 1338.55 -19.5224C1379.61 -26.8125 1418.85 -20.8505 1460.77 -16.3011C1473.13 -14.9257 1485.67 -13.6851 1498.42 -12.8924C1571.62 -8.63545 1647.65 -26.9716 1681.42 -53.3534" stroke="#8F8799" stroke-width="2" stroke-miterlimit="10"/>
<path d="M299.501 486.725C345.382 476.915 397.626 465.217 446.268 454.389C455.832 452.213 465.217 450.172 474.387 448.068C512.071 439.572 545.642 431.938 573.521 425.967C594.652 421.448 613.433 417.974 633.457 411.321C645.439 407.376 658.124 402.283 672.034 393.913C703.317 375.008 732.436 338.909 753.078 303.158C759.012 292.907 764.338 282.667 769.504 272.661C782.281 247.721 793.692 223.643 806.06 202.542C823.634 172.748 842.631 146.251 871.018 130.931C899.485 115.496 935.484 112.192 976.102 106.916C982.155 106.101 988.208 105.287 994.377 104.552C1033.65 99.7274 1069.75 96.4058 1105.9 84.5334C1163.99 65.4471 1219.99 23.4609 1276.4 -3.65215C1295.46 -12.7711 1314.96 -20.0399 1335.31 -24.4134C1376.31 -33.1166 1415.66 -29.3106 1457.87 -25.9337C1470.37 -24.8897 1482.97 -23.864 1495.81 -23.1877C1569.6 -19.5498 1646.13 -34.113 1680.66 -54.1288" stroke="#968295" stroke-width="2" stroke-miterlimit="10"/>
<path d="M293.716 478.54C339.885 466.44 393.003 453.97 442.748 444.158C452.563 442.241 462.182 440.36 471.523 438.632C510.168 431.483 544.784 426.198 573.128 423.294C594.677 421.037 613.87 420.334 634.607 415.888C647.04 413.282 660.239 409.315 674.902 401.722C707.809 384.448 738.116 347.621 758.342 310.726C764.106 300.1 769.279 289.584 774.059 279.14C786.046 253.227 796.058 228.189 806.991 205.928C822.431 174.496 838.927 146.02 866.215 128.057C892.949 110.399 928.814 104.172 969.6 98.1523C975.634 97.2394 981.785 96.4066 987.955 95.6721C1027.53 90.7925 1064.01 89.536 1100.6 79.0037C1159.63 62.1865 1216.62 20.6266 1273.22 -7.64089C1292.32 -17.073 1311.74 -24.8335 1332.05 -29.9135C1372.9 -40.0115 1412.34 -38.4597 1455.08 -36.0952C1467.62 -35.3644 1480.38 -34.5717 1493.28 -34.1103C1567.55 -31.1715 1644.71 -41.7833 1680.09 -55.5496" stroke="#9E7D91" stroke-width="2" stroke-miterlimit="10"/>
<path d="M287.931 470.356C334.29 455.984 388.399 442.822 439.345 434.008C449.295 432.269 459.183 430.745 468.874 429.257C508.461 423.358 544.042 420.539 573.049 420.665C595.034 420.767 614.619 422.738 635.99 420.615C648.875 419.35 662.605 416.607 678.003 409.691C712.454 394.165 744.145 356.573 763.76 318.572C769.37 307.669 774.373 296.778 778.785 285.995C789.901 259.227 798.595 233.109 808.094 209.691C821.517 176.699 835.511 146.245 861.503 125.674C886.602 105.777 922.137 96.6611 963.072 89.8006C969.187 88.7712 975.319 87.8401 981.587 87.0875C1021.45 82.1533 1058.3 82.8633 1095.48 73.8499C1155.41 59.2033 1213.4 18.0697 1270.23 -11.1556C1289.28 -20.8827 1308.8 -29.1712 1328.89 -34.9213C1369.67 -46.4324 1409.22 -47.0366 1452.26 -45.8446C1464.93 -45.5435 1477.76 -44.8672 1490.84 -44.5406C1565.71 -42.2208 1643.36 -49.0596 1679.62 -56.4781" stroke="#A5778D" stroke-width="2" stroke-miterlimit="10"/>
<path d="M282.128 462.073C328.775 445.41 383.776 431.575 435.807 423.679C445.99 422.1 456.129 420.835 465.991 419.722C506.54 415.171 543.067 414.719 572.736 417.875C595.158 420.337 615.154 425.079 637.14 425.182C650.574 425.239 664.737 423.738 680.872 417.499C716.848 403.623 749.824 365.285 769.024 326.14C774.58 314.943 779.215 303.712 783.358 292.573C793.702 264.93 800.98 237.753 808.946 213.194C820.235 178.563 831.727 146.132 856.521 122.935C880.102 100.877 915.27 88.6767 956.292 81.1899C962.389 80.0621 968.62 79.1129 974.888 78.3602C1015.05 73.3715 1052.28 76.1465 1090.02 68.5534C1150.89 56.1759 1209.95 15.352 1266.89 -14.9111C1285.99 -24.9514 1305.41 -33.7317 1325.47 -40.1883C1366.2 -53.1124 1405.86 -55.8724 1449.19 -55.853C1461.9 -55.8651 1474.88 -55.5203 1488.05 -55.2118C1563.52 -53.511 1641.68 -56.4784 1678.69 -57.6293" stroke="#AD7289" stroke-width="2" stroke-miterlimit="10"/>
<path d="M276.342 453.889C323.197 435.052 379.152 420.329 432.305 413.547C442.739 412.227 453.013 411.14 463.145 410.385C504.556 407.199 542.226 409.078 572.459 415.282C595.299 420.006 615.805 427.502 638.423 429.928C652.309 431.325 667.084 430.931 683.874 425.486C721.474 413.243 755.638 374.177 774.423 333.887C779.808 322.315 784.271 310.709 788.144 299.213C797.699 270.598 803.578 242.459 810.11 216.742C819.283 180.57 828.39 146.24 851.969 120.319C873.933 96.12 908.752 80.9333 949.942 72.7036C956.119 71.4593 962.332 70.4117 968.698 69.6408C1009.25 64.5794 1046.76 69.4375 1084.96 63.1847C1146.76 53.0762 1206.81 12.6786 1263.97 -18.6406C1283.1 -28.9941 1302.42 -38.3643 1322.47 -45.4291C1363.14 -59.7662 1402.91 -64.6822 1446.64 -65.7553C1459.49 -66.0988 1472.54 -65.9688 1485.79 -65.7768C1561.76 -64.6768 1640.52 -63.8894 1678.39 -58.6925" stroke="#B46C85" stroke-width="2" stroke-miterlimit="10"/>
<path d="M270.557 445.705C317.7 424.577 374.548 409.18 428.885 403.298C439.552 402.138 450.077 401.31 460.379 400.93C502.752 399.092 541.368 403.338 572.264 412.572C595.522 419.558 616.457 429.923 639.691 434.575C654.046 437.411 669.334 438.142 686.859 433.375C725.985 422.781 761.434 382.969 779.823 341.634C785.055 329.785 789.347 317.804 792.853 305.969C801.537 276.498 806.197 247.263 811.195 220.405C818.351 182.674 825.055 146.349 847.221 117.74C867.668 91.3806 902.137 73.2075 943.396 64.2531C949.555 62.9105 955.866 61.8447 962.232 61.0738C1003.08 55.9578 1040.97 62.8809 1079.74 58.0485C1142.54 50.0925 1203.49 10.1394 1260.86 -22.2359C1279.94 -32.8844 1299.27 -42.7644 1319.29 -50.5358C1359.9 -66.2859 1399.78 -73.3577 1443.8 -75.6035C1456.8 -76.2783 1469.9 -76.3632 1483.24 -76.2877C1559.8 -75.8067 1639.17 -71.1662 1677.8 -59.7017" stroke="#BC6781" stroke-width="2" stroke-miterlimit="10"/>
<path d="M264.753 437.423C312.086 414.023 369.925 397.933 425.365 393.068C436.265 392.069 447.059 391.597 457.613 391.475C500.947 390.985 540.59 397.482 572.085 409.962C595.781 419.307 617.126 432.444 640.957 439.222C655.763 443.398 671.565 445.255 689.844 441.264C730.513 432.418 767.23 391.761 785.203 349.283C790.363 337.041 794.305 324.82 797.523 312.529C805.417 282.086 808.679 251.888 812.144 223.891C817.167 184.521 821.602 146.378 842.454 115.062C861.4 86.6418 895.386 65.3039 936.831 55.7049C942.972 54.264 949.363 53.0816 955.729 52.3108C996.894 47.2385 1035.15 56.1282 1074.47 52.6179C1138.19 46.9309 1200.22 7.28756 1257.72 -26.0272C1276.82 -37.0873 1296.18 -47.3789 1315.97 -55.8203C1356.52 -72.9835 1396.51 -82.2112 1440.83 -85.6295C1453.87 -86.6176 1467.13 -86.9355 1480.65 -86.9948C1557.81 -87.1327 1637.67 -78.7193 1677.17 -60.9069" stroke="#C3617D" stroke-width="2" stroke-miterlimit="10"/>
<path d="M258.968 429.238C306.589 403.548 365.302 386.687 421.845 382.837C432.996 382.097 443.925 381.804 454.749 382.039C499.025 382.798 539.633 391.761 571.791 407.27C595.904 418.877 617.679 434.884 642.223 443.869C657.401 449.502 673.814 452.466 692.828 449.152C735.122 441.939 773.044 400.652 790.504 357.049C795.511 344.529 799.282 331.933 802.133 319.304C809.255 287.986 811.1 256.729 813.13 227.573C816.037 186.662 818.186 146.602 837.626 112.599C855.152 82.0007 888.69 57.6947 930.205 47.371C936.426 45.8136 942.719 44.6494 949.281 43.8422C990.741 38.7153 1029.38 49.67 1069.16 47.5983C1133.82 44.1803 1196.84 4.9633 1254.53 -29.5059C1273.68 -40.8791 1292.94 -51.6624 1312.71 -60.8104C1353.19 -79.4849 1393.3 -90.7702 1438.03 -95.281C1451.21 -96.6004 1464.61 -97.2497 1478.13 -97.309C1555.77 -98.1461 1636.26 -85.7811 1676.52 -61.7011" stroke="#CB5C79" stroke-width="2" stroke-miterlimit="10"/>
<path d="M253.183 421.054C301.111 393.171 360.796 375.52 418.442 372.687C429.728 372.125 441.007 372.072 452.001 372.683C497.14 374.807 538.873 386.003 571.613 404.659C596.243 418.51 618.25 437.422 643.508 448.615C659.137 455.588 676.063 459.677 695.849 457.238C739.668 451.674 778.975 409.623 795.922 364.894C800.775 352.098 804.259 339.046 806.84 326.06C813.172 293.77 813.619 261.551 814.215 231.237C815.086 188.668 814.85 146.711 832.877 110.02C848.886 77.2615 881.976 49.9873 923.659 38.9207C929.861 37.2649 936.235 35.9843 942.797 35.1771C984.65 29.9774 1023.57 43.0153 1063.91 42.2657C1129.47 41.0184 1193.58 2.2094 1251.41 -33.1994C1270.6 -44.8858 1289.77 -56.1607 1309.51 -66.0152C1349.83 -86.0845 1390.15 -99.544 1435.17 -105.227C1448.4 -106.86 1461.96 -107.742 1475.54 -108.016C1553.78 -109.472 1634.76 -93.3345 1675.87 -63.005" stroke="#D25775" stroke-width="2" stroke-miterlimit="10"/>
<path d="M247.379 412.772C295.497 382.616 356.172 364.273 414.904 362.358C426.423 361.956 437.872 362.279 449.118 363.148C495.219 366.62 537.898 380.183 571.201 401.887C596.268 418.098 618.687 439.782 644.559 453.2C660.639 461.514 678.097 466.827 698.619 465.064C743.963 461.151 784.556 418.353 801.088 372.481C805.868 359.291 809.101 345.981 811.314 332.656C816.776 299.51 816.003 266.195 814.968 234.759C813.723 190.649 811.299 146.758 827.913 107.379C842.52 72.5407 875.127 42.1017 916.996 30.3906C923.278 28.6182 929.651 27.3376 936.312 26.5122C978.46 21.258 1017.78 36.4591 1058.57 37.0498C1125.08 38.1698 1190.17 -0.311222 1248.19 -36.8744C1267.33 -48.8558 1286.6 -60.6587 1306.21 -71.2015C1346.47 -92.6839 1386.91 -108.299 1432.22 -115.155C1445.58 -117.119 1459.21 -118.216 1472.87 -118.607C1551.7 -120.682 1633.2 -100.673 1675.16 -64.0939" stroke="#DA5170" stroke-width="2" stroke-miterlimit="10"/>
<path d="M241.594 404.587C290 372.141 351.549 353.027 411.501 352.208C423.271 352.064 434.954 352.547 446.451 353.675C493.512 358.495 537.236 374.407 571.104 399.16C596.589 417.632 619.418 442.087 646.004 457.712C662.554 467.464 680.507 473.805 701.782 472.818C748.751 470.537 790.53 427.011 806.665 380.093C811.293 366.627 814.355 352.942 816.182 339.18C820.872 305.159 818.683 270.784 816.213 238.189C812.835 192.441 808.24 146.713 823.325 104.566C836.611 67.532 868.574 34.1613 910.592 21.6089C916.856 19.7382 923.309 18.341 929.97 17.5157C972.413 12.2069 1012.12 29.473 1053.45 31.3857C1120.89 34.7747 1186.96 -3.37835 1245.2 -40.8993C1264.39 -53.1938 1283.55 -65.5868 1303.05 -76.7196C1343.24 -99.7133 1383.8 -117.386 1429.5 -125.433C1442.89 -127.808 1456.7 -129.04 1470.44 -129.548C1549.77 -132.223 1631.88 -108.361 1674.59 -65.5144" stroke="#E14C6C" stroke-width="2" stroke-miterlimit="10"/>
<path d="M235.907 396.385C284.503 361.666 347.043 341.86 408.08 341.959C420.083 341.976 431.919 342.736 443.685 344.22C491.708 350.388 536.378 368.667 570.908 396.45C596.928 417.264 620.07 444.509 647.271 462.359C664.272 473.452 682.738 480.917 704.767 480.707C753.243 479.977 796.345 435.902 812.047 387.742C816.503 373.9 819.314 359.957 820.872 345.838C824.772 310.844 821.184 275.508 817.181 241.773C811.687 194.483 804.985 146.705 818.577 101.987C830.443 62.7745 861.94 26.3373 904.046 13.1585C910.292 11.1895 916.843 9.77412 923.603 8.93054C966.34 3.56721 1006.43 22.8983 1048.33 26.2314C1116.7 31.8895 1183.84 -5.95385 1242.29 -44.5308C1261.52 -57.1386 1280.6 -70.0232 1300.07 -81.8625C1340.1 -106.251 1380.85 -126.196 1426.88 -135.219C1440.41 -137.926 1454.26 -139.471 1468.2 -140.015C1548.13 -143.309 1630.73 -115.674 1674.31 -66.4797" stroke="#E94668" stroke-width="2" stroke-miterlimit="10"/>
<path d="M230.104 388.102C279.006 351.191 342.421 330.613 404.56 331.728C416.796 331.906 428.902 333.022 440.821 334.784C489.707 342.317 535.52 362.928 570.613 393.758C597.07 416.933 620.525 446.967 648.439 467.024C665.793 479.475 684.889 488.147 707.654 488.614C757.772 489.614 802.043 444.712 817.348 395.507C821.75 381.371 824.273 366.971 825.463 352.514C828.591 316.646 823.568 280.151 818.149 245.356C810.522 196.428 801.649 146.814 813.713 99.3273C824.256 57.9186 855.11 18.5496 897.383 4.628C903.709 2.54248 910.243 1.02876 917.002 0.185183C960.053 -5.13438 1000.5 16.1633 1042.88 20.935C1112.16 28.7638 1180.3 -8.55489 1238.97 -48.188C1258.15 -61.0907 1277.23 -74.4852 1296.67 -87.031C1336.64 -112.833 1377.51 -134.934 1423.82 -145.129C1437.5 -148.167 1451.41 -149.927 1465.43 -150.587C1545.96 -154.501 1629.17 -123.013 1673.5 -67.5507" stroke="#F04164" stroke-width="2" stroke-miterlimit="10"/>
<path d="M224.319 379.918C273.411 340.735 337.816 319.465 401.139 321.48C413.528 321.934 425.965 323.193 438.055 325.329C487.884 334.112 534.662 357.188 570.418 391.049C597.293 416.485 621.177 449.389 649.804 471.654C667.628 485.543 687.335 495.321 710.737 496.484C762.381 499.134 807.937 453.486 822.729 403.156C826.978 388.743 829.33 373.968 830.251 359.154C832.49 322.332 826.168 284.857 819.314 248.904C809.67 198.416 798.59 146.77 809.063 96.7299C818.285 53.125 848.593 10.806 890.935 -3.84032C897.243 -6.02416 903.875 -7.55602 910.733 -8.41779C954.177 -13.8101 994.909 9.57075 1037.83 15.6645C1108.04 25.7623 1177.26 -11.2467 1236.07 -51.8193C1255.28 -65.0352 1274.27 -78.9213 1293.69 -92.1736C1333.6 -119.388 1374.57 -143.646 1421.28 -155.032C1435 -158.383 1449.07 -160.376 1463.17 -161.153C1544.18 -165.766 1628.01 -130.424 1673.1 -68.5958" stroke="#F83B60" stroke-width="2" stroke-miterlimit="10"/>
<path d="M218.534 371.734C267.913 330.26 333.193 308.218 397.619 311.25C462.045 314.281 524.912 342.415 570.123 388.358C614.464 433.444 650.639 499.262 713.623 504.391C766.891 508.673 813.733 462.279 828.011 410.823C842.29 359.367 831.944 304.535 820.165 252.408C808.387 200.28 795.218 146.682 804.198 94.0706C813.178 41.4595 851.157 -10.516 904.132 -17.1629C947.87 -22.6098 988.985 2.8361 1032.48 10.3503C1103.6 22.6187 1173.81 -13.964 1232.82 -55.5927C1291.84 -97.2214 1348.55 -146.356 1418.23 -164.941C1511.48 -189.716 1618.34 -149.687 1672.28 -69.7649" stroke="#FF365C" stroke-width="2" stroke-miterlimit="10"/>
<path d="M217.551 366.424C266.385 324.746 330.965 302.223 394.995 304.209C419.559 305.055 443.954 309.39 467.34 317.064C504.801 329.355 539.452 350.098 567.612 377.534C602.447 411.362 632.453 457.575 672.986 479.874C684.758 486.34 697.365 490.72 711.269 492.216C763.692 497.977 809.615 455.413 826.093 406.5C838.537 369.316 837.697 328.488 831.983 288.256C830.172 275.167 827.851 262.071 825.468 249.189C815.755 196.68 804.731 142.583 815.087 89.717C825.214 37.809 862.848 -13.2889 915.302 -20.5513C958.618 -26.632 999.737 -2.81399 1043 4.53989C1113.78 16.6662 1183.06 -16.1838 1241.23 -53.5882C1247.78 -57.7495 1254.2 -62.0893 1260.64 -66.3307C1311.97 -100.539 1362.69 -136.972 1423.67 -150.898C1439.08 -154.46 1455.03 -156.19 1470.94 -156.49C1549.67 -157.527 1631.27 -119.942 1676.55 -58.7587" stroke="#FF3B5C" stroke-width="2" stroke-miterlimit="10"/>
<path d="M216.551 361.016C264.838 319.134 328.701 296.032 392.352 297.071C416.745 297.542 441.068 301.483 464.363 308.666C501.696 320.268 536.479 340.072 564.985 366.63C600.227 399.365 630.722 444.369 671.014 467.018C682.59 473.521 695.037 478.134 708.719 480.077C760.394 487.298 805.498 448.547 823.862 402.133C838.046 366.661 839.423 325.728 835.381 285.186C834.062 272.007 832.331 258.801 830.44 245.829C822.872 192.821 814.011 138.324 825.664 85.3197C836.858 34.2313 874.243 -16.0072 926.042 -24.0636C968.936 -30.778 1009.94 -8.66807 1053.08 -1.39432C1123.42 10.5098 1191.88 -18.5274 1249.3 -51.7257C1255.73 -55.4573 1262.16 -59.1889 1268.47 -63.0006C1319 -93.2978 1368.86 -125.605 1428.89 -137.014C1444.11 -139.932 1459.74 -141.196 1475.45 -140.949C1553.22 -139.98 1634.89 -103.63 1680.61 -47.8144" stroke="#FF415D" stroke-width="2" stroke-miterlimit="10"/>
<path d="M215.667 355.688C263.328 313.718 326.572 290.019 389.826 290.013C414.128 289.992 438.279 293.558 461.501 300.347C498.788 311.145 533.621 330.126 562.474 355.806C598.124 387.449 629.206 431.226 669.159 454.242C680.655 460.862 692.923 465.609 706.364 467.903C757.275 476.485 801.46 441.565 821.943 397.81C837.751 363.97 841.543 322.895 839.111 282.259C838.381 268.97 837.142 255.674 835.743 242.61C830.221 189.122 823.622 134.207 836.553 80.9663C848.814 30.6975 885.933 -18.7798 937.211 -27.4519C979.782 -34.8182 1020.69 -14.318 1063.62 -7.10618C1133.53 4.67401 1201.15 -20.6488 1257.74 -49.5244C1264.07 -52.728 1270.37 -56.0298 1276.66 -59.43C1326.47 -85.9325 1375.38 -113.998 1434.37 -122.774C1449.31 -125.029 1464.73 -125.747 1480.2 -125.15C1556.92 -122.156 1638.77 -87.0591 1684.92 -36.6114" stroke="#FF465D" stroke-width="2" stroke-miterlimit="10"/>
<path d="M214.685 350.378C261.799 308.204 324.326 283.926 387.22 283.071C411.351 282.675 435.43 285.848 458.641 292.029C495.88 302.022 530.765 320.18 559.963 344.982C596.022 375.533 627.69 418.082 667.305 441.467C678.604 448.122 690.712 453.103 703.913 455.746C753.978 465.807 797.522 434.565 819.81 393.425C837.421 361.082 843.467 320.098 842.608 279.172C842.37 265.792 841.641 252.503 840.813 239.232C837.455 185.344 832.902 129.948 847.229 76.5511C860.556 27.1019 897.428 -21.516 948.051 -30.9821C990.217 -38.8839 1031.02 -20.0916 1073.81 -13.0583C1143.37 -1.51856 1210.07 -23.0103 1265.92 -47.6798C1272.11 -50.4537 1278.31 -53.2275 1284.49 -56.0997C1333.5 -78.6911 1381.55 -102.63 1439.58 -108.89C1454.33 -110.5 1469.46 -110.654 1484.8 -109.628C1560.47 -104.609 1642.5 -70.7648 1688.98 -25.6668" stroke="#FF4C5E" stroke-width="2" stroke-miterlimit="10"/>
<path d="M213.702 345.068C260.271 302.69 322.099 277.931 384.596 276.031C408.555 275.26 432.543 277.941 455.682 283.729C492.892 293.015 527.908 310.233 557.354 334.176C593.938 363.715 626.076 404.957 665.351 428.709C676.57 435.481 688.518 440.695 701.38 443.705C750.681 455.128 793.502 427.681 817.713 389.236C837.046 358.507 845.31 317.418 846.239 276.262C846.493 262.792 846.354 249.393 846.116 236.013C844.805 181.645 842.416 125.849 858.217 72.1791C872.495 23.4694 909.217 -24.3073 959.319 -34.389C1001.16 -42.9427 1041.85 -25.8585 1084.44 -18.7888C1153.57 -7.3729 1219.42 -25.2485 1274.44 -45.5954C1280.63 -47.8594 1286.7 -50.2035 1292.78 -52.5477C1341.07 -71.3445 1388.17 -91.041 1445.24 -94.7846C1459.71 -95.7323 1474.61 -95.4381 1489.73 -93.9639C1564.36 -86.9207 1646.56 -54.3289 1693.47 -14.5989" stroke="#FF515E" stroke-width="2" stroke-miterlimit="10"/>
<path d="M212.721 339.758C258.743 297.176 319.952 271.819 381.873 269.009C405.662 267.863 429.559 270.053 452.723 275.429C489.787 283.929 524.971 300.404 554.746 323.371C591.737 351.817 624.462 391.832 663.398 415.952C674.519 422.742 686.208 428.207 698.928 431.549C747.482 444.432 789.564 420.681 815.679 384.833C836.912 355.583 847.332 314.604 849.835 273.157C850.697 259.675 851.031 246.088 851.285 232.617C852.137 177.848 851.794 121.572 868.99 67.7458C884.335 19.8557 920.809 -27.0617 970.274 -37.839C1011.69 -47.0265 1052.29 -31.5519 1094.75 -24.6607C1163.43 -13.4671 1228.46 -27.5299 1282.73 -43.6707C1288.79 -45.505 1294.76 -47.3211 1300.81 -49.2537C1348.3 -64.1394 1394.54 -79.71 1450.55 -80.9191C1464.74 -81.204 1479.43 -80.3636 1494.31 -78.5398C1567.89 -69.472 1650.25 -38.2313 1697.51 -3.75265" stroke="#FF575F" stroke-width="2" stroke-miterlimit="10"/>
<path d="M211.818 334.331C257.196 291.564 317.803 265.708 379.329 261.852C402.946 260.331 426.77 262.127 449.825 266.914C486.843 274.609 522.077 290.261 552.296 312.332C589.696 339.685 622.909 378.491 661.605 402.961C672.547 409.886 684.156 415.468 696.538 419.177C744.246 433.539 785.901 413.528 813.625 380.331C836.777 352.658 849.335 311.691 853.429 270.051C854.783 256.478 855.707 242.782 856.452 229.22C859.449 173.953 861.074 117.313 879.745 63.2138C896.04 16.0631 932.383 -29.9146 981.291 -41.5042C1022.31 -51.2271 1062.79 -37.4606 1105.11 -30.7479C1173.45 -19.7947 1237.55 -30.0265 1290.98 -41.943C1296.94 -43.2492 1302.88 -44.6538 1308.73 -46.0402C1355.39 -57.1131 1400.77 -68.5577 1455.84 -67.1522C1469.84 -66.7926 1484.24 -65.3877 1498.89 -63.116C1571.52 -52.0418 1653.95 -22.0356 1701.64 7.07513" stroke="#FF5C5F" stroke-width="2" stroke-miterlimit="10"/>
<path d="M210.836 329.022C255.685 286.148 315.558 259.615 376.704 254.813C400.249 252.898 423.884 254.221 446.866 258.614C483.854 265.602 519.122 280.333 549.687 301.527C587.495 327.788 621.294 365.366 659.652 390.204C670.496 397.147 681.846 402.98 694.103 407.119C741.065 422.941 782.195 406.688 811.608 376.027C836.68 349.931 851.258 308.894 857.042 267.044C858.986 253.362 860.402 239.575 861.639 225.922C866.701 170.273 870.372 113.152 890.536 58.8788C907.702 12.5841 943.994 -32.5706 992.363 -44.8741C1033.05 -55.2489 1073.42 -43.1905 1115.55 -36.4413C1183.45 -25.612 1246.72 -32.1295 1299.42 -39.7415C1305.26 -40.618 1311.09 -41.4945 1316.93 -42.3711C1362.89 -49.551 1407.31 -56.8514 1461.34 -52.8131C1475.06 -51.7907 1489.25 -49.8397 1503.76 -47.2366C1575.34 -34.1378 1657.95 -5.38437 1705.97 18.3767" stroke="#FF6160" stroke-width="2" stroke-miterlimit="10"/>
<path d="M209.854 323.712C254.157 280.635 313.33 253.62 374.08 247.773C397.454 245.483 421.016 246.412 444.006 250.295C480.848 256.497 516.266 270.387 547.177 290.703C585.392 315.871 619.68 352.241 657.797 377.428C668.463 384.506 679.733 390.455 691.652 394.962C737.866 412.244 778.569 399.732 809.493 371.74C836.582 347.203 853.2 306.196 860.558 264.055C862.993 250.282 864.919 236.502 866.728 222.642C873.935 166.494 879.554 108.911 901.212 54.4634C919.327 8.90816 955.488 -35.307 1003.2 -48.4045C1043.47 -59.4131 1083.74 -48.9643 1125.74 -42.3936C1193.19 -31.7866 1255.64 -34.4912 1307.59 -37.8971C1313.42 -38.2638 1319.14 -38.7106 1324.85 -39.1574C1369.99 -42.5246 1413.56 -45.6007 1466.64 -39.0461C1480.07 -37.361 1494.04 -34.962 1508.33 -31.911C1578.86 -16.7876 1661.54 10.7313 1710.09 29.1062" stroke="#FF6760" stroke-width="2" stroke-miterlimit="10"/>
<path d="M208.872 318.402C252.629 275.12 311.085 247.527 371.456 240.732C394.658 238.067 418.031 238.523 441.029 241.896C477.824 247.293 513.293 260.36 544.568 279.897C583.29 303.955 618.066 339.116 655.845 364.67C666.412 371.766 677.441 378.065 689.2 382.805C734.551 401.467 774.962 392.873 807.459 367.336C836.583 344.457 855.204 303.283 864.171 261.047C867.098 247.183 869.614 233.294 871.914 219.343C881.186 162.813 888.853 104.75 912.003 50.1278C930.971 5.33027 967.081 -38.0619 1014.27 -51.775C1054.14 -63.319 1094.4 -54.5963 1136.16 -48.186C1203.28 -37.721 1264.68 -36.7731 1315.9 -35.8746C1321.6 -35.8116 1327.21 -35.7303 1332.82 -35.6491C1377.26 -35.1233 1419.86 -34.0553 1471.98 -24.9844C1485.23 -22.6547 1498.89 -19.6914 1512.97 -16.1925C1582.44 0.955593 1665.29 27.1234 1714.19 40.247" stroke="#FF6C61" stroke-width="2" stroke-miterlimit="10"/>
<path d="M207.987 313.074C251.1 269.607 308.955 241.514 368.929 233.674C391.961 230.634 415.243 230.598 438.167 233.578C474.934 238.269 510.551 250.494 542.057 269.073C581.187 292.039 616.549 325.972 653.971 351.796C664.359 359.027 675.309 365.442 686.747 370.649C731.351 390.771 771.452 385.997 805.343 363.05C836.619 341.908 857.047 300.603 867.685 258.058C871.221 244.184 874.209 230.105 877.002 216.063C888.419 159.035 898.034 100.509 922.776 45.6944C942.596 1.6545 978.672 -40.8163 1025.23 -55.2251C1064.77 -67.421 1104.82 -60.3882 1146.48 -53.9597C1213.16 -43.7169 1273.73 -38.9563 1324.2 -33.8516C1329.8 -33.2606 1335.39 -32.7678 1340.89 -32.1586C1384.51 -27.82 1426.27 -22.5277 1477.33 -10.9223C1490.29 -7.92989 1503.75 -4.4202 1517.68 -0.589973C1586.21 18.5646 1669.13 43.4978 1718.44 51.1551" stroke="#FF7261" stroke-width="2" stroke-miterlimit="10"/>
<path d="M207.005 307.764C249.59 264.191 306.709 235.421 366.305 226.634C389.166 223.219 412.375 222.79 435.288 225.162C472.008 229.047 507.677 240.449 539.528 258.151C579.066 280.024 615.015 312.73 652.098 338.922C662.388 346.171 673.079 352.838 684.277 358.394C728.152 380.074 767.961 379.219 803.29 358.548C836.718 339.144 859.032 297.592 871.361 254.836C875.388 240.87 878.967 226.683 882.251 212.55C895.733 155.139 907.296 96.152 933.63 41.1443C954.301 -2.13795 990.327 -43.7857 1036.34 -58.9084C1075.46 -71.7381 1115.42 -66.3149 1156.95 -60.0648C1223.19 -49.946 1282.93 -41.471 1332.55 -32.142C1338.13 -31.1394 1343.51 -30.1004 1348.99 -29.0797C1391.8 -20.83 1432.7 -11.4117 1482.82 2.80833C1495.59 6.44531 1508.75 10.5194 1522.46 14.7975C1589.94 35.9767 1673.03 59.6571 1722.78 61.9466" stroke="#FF7762" stroke-width="2" stroke-miterlimit="10"/>
<path d="M206.005 302.356C248.043 258.579 304.464 229.328 363.663 219.496C386.352 215.705 409.47 214.785 432.311 216.763C468.885 219.862 504.703 230.423 536.901 247.247C576.865 268.126 613.383 299.507 650.127 326.066C660.337 333.432 670.849 340.233 681.806 346.139C724.837 369.298 764.452 372.343 801.157 354.163C836.737 336.496 860.956 294.795 874.876 251.847C879.493 237.772 883.563 223.493 887.339 209.269C902.966 151.361 916.38 91.9293 944.305 36.7289C965.828 -5.79567 1001.82 -46.522 1047.2 -62.3404C1086 -75.8221 1125.85 -72.0087 1167.07 -65.8024C1232.97 -55.924 1291.79 -43.6178 1340.68 -29.9844C1346.15 -28.4538 1351.5 -27.0033 1356.78 -25.4364C1398.87 -13.3921 1438.72 0.286975 1487.89 17.0232C1500.38 21.323 1513.32 25.8449 1526.8 30.5709C1593.23 53.7747 1676.5 76.2025 1726.58 73.1422" stroke="#FF7D62" stroke-width="2" stroke-miterlimit="10"/>
<path d="M205.121 297.027C246.613 253.046 302.316 223.216 361.137 212.437C383.753 208.253 406.7 206.958 429.45 208.444C465.995 210.837 501.847 220.476 534.39 236.423C574.861 256.191 611.867 286.363 648.272 313.29C658.285 320.692 668.656 327.825 679.372 334.08C721.656 358.699 761.015 365.86 799.14 349.858C836.81 334.143 862.879 291.998 878.489 248.839C883.598 234.673 888.178 220.402 892.624 205.952C910.316 147.662 925.641 87.5717 955.194 32.3753C977.57 -9.39166 1013.51 -49.295 1058.35 -65.8273C1096.73 -79.9427 1136.49 -77.7389 1177.57 -71.7111C1243.02 -62.0549 1301 -46.0344 1349.07 -28.0783C1354.41 -26.118 1359.68 -24.0411 1364.93 -22.0626C1406.22 -6.10724 1445.21 11.6977 1493.41 30.9503C1505.62 35.9128 1518.35 40.981 1531.6 46.0566C1596.98 71.285 1680.4 92.3617 1730.93 84.0318" stroke="#FF8263" stroke-width="2" stroke-miterlimit="10"/>
<path d="M204.139 291.717C244.987 247.551 300.089 217.222 358.513 205.397C380.958 200.838 403.814 199.051 426.572 200.028C463.069 201.615 498.972 210.432 531.862 225.501C572.741 244.176 610.333 273.121 646.399 300.416C656.333 307.935 666.525 315.202 677.001 321.807C718.439 347.905 757.543 359.18 797.204 345.436C837.063 331.656 865 289.166 882.183 245.715C887.783 231.459 892.953 217.078 897.891 202.537C917.728 143.748 934.904 83.2143 966.048 27.8251C989.16 -13.2643 1025.17 -52.2644 1069.49 -69.4123C1107.44 -84.1614 1147.19 -83.6839 1188.05 -77.718C1253.17 -68.2039 1310.22 -48.4507 1357.54 -26.2886C1362.78 -23.8002 1368.02 -21.3118 1373.04 -18.8854C1413.63 0.962951 1451.66 22.912 1498.9 44.6809C1510.92 50.2879 1523.36 55.9206 1536.48 61.4259C1600.91 88.6608 1684.41 108.503 1735.27 94.8233" stroke="#FF8763" stroke-width="2" stroke-miterlimit="10"/>
<path d="M203.157 286.407C243.458 242.037 297.843 211.128 355.888 198.357C378.162 193.423 400.946 191.242 423.612 191.727C460.063 192.51 496.115 200.486 529.252 214.695C570.54 232.278 608.718 259.996 644.446 287.659C654.281 295.195 664.214 302.714 674.45 309.668C715.043 337.244 753.909 352.733 794.972 341.069C836.921 329.242 866.825 286.387 885.581 242.646C891.789 228.378 897.433 213.809 902.862 199.177C924.747 139.908 943.754 78.8313 976.625 23.4279C1000.49 -16.8857 1036.54 -55.081 1080.24 -72.8262C1117.77 -88.2091 1157.43 -89.3412 1198.18 -83.4555C1262.85 -74.1636 1319.07 -50.5977 1365.55 -24.2112C1370.76 -21.3114 1375.8 -18.2768 1380.82 -15.3405C1420.58 8.32063 1457.75 34.3958 1503.97 58.8957C1515.69 65.0672 1527.92 71.2461 1540.82 77.1993C1604.18 106.36 1687.87 125.048 1739.17 106.001" stroke="#FF8D64" stroke-width="2" stroke-miterlimit="10"/>
<path d="M202.174 281.097C241.947 236.621 295.615 205.133 353.263 191.317C375.366 186.008 398.059 183.335 420.751 183.409C457.074 183.503 493.276 190.637 526.741 203.871C568.436 220.362 607.202 246.852 642.591 274.883C652.247 282.554 662.02 290.306 672.114 297.591C711.96 326.628 750.472 346.25 793.072 336.844C837.227 327.049 868.864 283.671 889.328 239.817C896.028 225.458 902.262 210.78 908.183 196.057C932.231 136.387 953.07 74.7687 987.532 19.1727C1012.23 -20.4816 1048.25 -57.7555 1091.41 -76.2146C1128.62 -92.2495 1168.08 -94.9732 1208.7 -89.2659C1272.94 -80.098 1328.32 -52.8175 1374.05 -22.2249C1379.16 -18.797 1384.17 -15.3509 1389.08 -11.8866C1428.05 15.6857 1464.35 45.8867 1509.62 72.903C1521.15 79.719 1533.17 86.4441 1545.75 92.8634C1608.06 124.049 1691.93 141.484 1743.55 117.087" stroke="#FF9264" stroke-width="2" stroke-miterlimit="10"/>
<path d="M201.291 275.77C240.518 231.089 293.468 199.023 350.64 184.277C372.572 178.593 395.173 175.429 417.774 175.011C454.05 174.301 490.303 180.611 524.115 192.967C566.218 208.366 605.453 233.549 640.62 262.027C650.178 269.717 659.791 277.702 669.546 285.355C708.565 315.968 746.556 337.721 790.841 332.478C837.308 326.933 870.69 280.893 892.728 236.748C900.018 222.28 906.645 207.529 913.156 192.697C939.25 132.547 961.903 70.2879 998.208 14.7577C1023.64 -24.219 1059.75 -60.4915 1102.27 -79.6463C1139.05 -96.3149 1178.5 -100.765 1218.92 -95.0211C1282.81 -86.0936 1337.28 -54.9822 1382.16 -20.1653C1387.15 -16.3076 1392.05 -12.3335 1396.84 -8.43948C1435.08 22.9274 1470.44 57.371 1514.65 86.9217C1525.9 94.4005 1537.72 101.672 1550.15 108.422C1611.42 141.633 1695.46 157.815 1747.52 128.05" stroke="#FF9865" stroke-width="2" stroke-miterlimit="10"/>
<path d="M200.29 270.361C238.872 225.495 291.222 192.929 347.997 177.138C369.758 171.079 392.286 167.522 414.797 166.612C451.043 165.195 487.329 170.585 521.487 182.063C564.097 196.351 603.82 220.325 638.648 249.171C648.028 256.995 657.462 265.115 666.977 273.118C705.151 305.209 743.089 333.276 788.689 327.994C836.98 322.417 872.576 277.899 896.304 233.543C904.086 218.985 911.303 204.124 918.305 189.201C946.563 128.651 970.931 65.7697 1008.96 10.2253C1035.13 -28.0739 1071.32 -63.3449 1113.29 -83.3119C1149.75 -100.632 1189 -106.674 1229.29 -101.109C1292.75 -92.305 1346.36 -57.5774 1390.53 -18.3578C1395.41 -13.9721 1400.29 -9.58645 1404.97 -5.16441C1442.41 30.1136 1476.9 68.6831 1520.16 100.75C1531.12 108.892 1542.74 116.709 1554.93 123.809C1615.14 159.044 1699.25 173.894 1751.75 138.859" stroke="#FF9D65" stroke-width="2" stroke-miterlimit="10"/>
<path d="M199.307 265.051C237.344 219.981 288.976 186.836 345.372 170.098C367.061 163.646 389.4 159.615 411.918 158.195C448.019 155.992 484.454 160.54 518.958 171.141C561.976 184.336 602.286 207.083 636.775 236.297C646.057 244.14 655.251 252.609 664.623 260.943C701.97 294.611 739.554 326.812 786.672 323.689C836.992 320.279 874.518 275.201 899.935 230.634C908.209 215.985 916.034 201.113 923.51 186.001C953.814 124.971 979.997 61.4488 1019.75 5.89016C1046.66 -31.7315 1082.91 -66.0993 1124.26 -86.6637C1160.3 -104.618 1199.56 -112.287 1239.61 -106.882C1302.62 -98.301 1355.41 -59.7606 1398.74 -16.3166C1403.59 -11.5194 1408.27 -6.58755 1412.94 -1.65566C1449.66 37.4169 1483.21 80.229 1525.5 114.812C1536.28 123.598 1547.58 131.882 1559.57 139.528C1618.83 176.77 1703.01 190.385 1755.95 149.982" stroke="#FFA366" stroke-width="2" stroke-miterlimit="10"/>
<path d="M198.424 259.723C250.306 197.142 328.015 156.53 409.057 149.877C490.08 143.126 573.417 170.321 634.92 223.522C680.945 263.415 723.794 320.778 784.637 319.286C836.886 318.062 876.522 272.288 903.53 227.529C948.186 153.369 978.764 70.7281 1030.53 1.45685C1082.39 -67.8326 1164.29 -124.272 1250.01 -112.772C1319.66 -103.487 1375.94 -52.1669 1420.99 1.73664C1466.05 55.6402 1506.05 115.767 1564.28 155.131C1622.52 194.495 1706.85 206.759 1760.22 160.989" stroke="#FFA866" stroke-width="2" stroke-miterlimit="10"/>
</g>
</g>
<defs>
<clipPath id="clip0_2288_5302">
<rect width="1168" height="223" rx="15" fill="white"/>
</clipPath>
</defs>
</svg>
